<svg xmlns="http://www.w3.org/2000/svg" viewBox="0 0 113 46"><path d="M97.8 10.9c-.8-.6-1.8-.4-2.7-.2-.6.1-1.6 0-2.2.4-2.1 1.3-2.4 4.4-2.2 6.6l.3 3.6c2-.4 4.2-.1 6.4 0l1.6-.1-.3-5.7c0-1.1.2-3.8-.9-4.6z"/><path d="M111 3.6C109-3 84.2 1.5 78.6 1.9c-12.8 1-25.3-1-37.8-.4-6.2.3-35.1-1.8-37.7 2-5 7.2-2.7 25.7-1.3 35-4 .8 2.3 4.2 3.1 4.9 6.3 2.2 16.5-.2 23.1.4 15.5 1.5 32-2.2 47.6-1 4.5 1.1 9.7 1 14.3 1.2 3.5 5.6 19.8-2.4 21-2.2 4.4.9.8-35.8.1-38.2zM25.7 35.1a3 3 0 01-2.6.7c-.8-.2-1-.9-.4-1.4l-.3-1.8-.2-2.3c0-2.4.2-4.8 0-7.2l-.1-1.8c-.5 1.3-.9 2.5-1.2 3.9a25 25 0 01-.9 3.7l.1.3c.1.5-.4.9-.7 1.1a3 3 0 01-.8.4c-.7.3-1.8.5-2.4 0-.1 0-.2-.1-.2-.3-.1-.3 0-.5.2-.7-.5-1.5-.9-3-1.7-4.4-.9-1.4-1.5-2.9-2.1-4.4l-.2-.4v1.1c.1 3.9.4 7.8.4 11.7 0 1.3-2.4 1.9-3.3 1.2-.3-.1-.4-.3-.6-.5-.3-.5-.2-.9.1-1.3-.1-3.8-.4-7.5-.4-11.3-.1-2-.1-3.9-.4-5.8-.3-1.7-.4-3.3.4-4.9.7-1.3 3.9-1.5 3.7 0 1.6 3.1 2.8 6.4 4.1 9.7l1.6 3.2 1.2-3.4c1-2.9 1.9-5.9 2.5-8.9l-.1-.2c-.1-.3.1-.6.4-.9.5-.9 3.8-1.4 3.6-.4l-.1.7c.7 2 .3 4.1.3 6.2 0 2.5.4 5.1.5 7.6.1 2.3-.5 4.8-.2 6.8.4 1.3.9 3-.2 4zm3.4-25.6v-.4c-.1-.2-.2-.3-.1-.5l.1-.3c-.2-.9-.1-1.9-.1-2.8 0-.8 1.4-1.3 2.1-1.4.8-.1 1.7.2 1.7 1.1 0 1.1-.1 2.2.4 3.2.2.5-.2 1-.7 1.3l-.2.2c-.4.3-.9.5-1.4.5-.4 0-.9 0-1.4-.3a2 2 0 01-.4-.6zm5.3 24.6c-.5.6-1.5.9-2.2 1-.1 0-1.9.2-1.5-.3.6-.8 0-2.5-.1-3.4-.2-2 .2-3.9-.1-5.9-.3-1.9-.7-3.7-.7-5.6 0-2 .1-4-.2-6-.1-.9 3.6-1.7 3.7-1 .3 2.1.1 4.3.1 6.5 0 1.9.6 3.7.7 5.6.1 1.9-.1 4 .4 5.9.1.9.6 2.4-.1 3.2zm16.2-.3c-.9.8-2 1.3-3.1 1.7-2.2.7-4.8 1.2-7.1.9-3.6-.5-2-3.8-2.3-6.3-.2-1.1 3.6-1.9 3.7-1 .2 1.5-.8 3.8.1 5.1.5.7 1.8.5 2.6.4.7 0 2-.1 2.6-.7.9-1-.2-3.1-.2-4.3 0-2.3 1-7.2-2.6-7.5-2.2-.2-6.4 1.1-7.4-1.7-.5-1.3-.2-2.6-.3-3.9 0-1.1-.4-2.2-.3-3.4.1-2.4 2.4-3.6 4.5-4.2 2.3-.6 10.5-1.5 9.2 2.9-.3 1-4 1.6-3.7.6.6-2.2-2.3-2.5-3.8-2.4a3 3 0 00-1 .1l-.8.3c-.7.8-.8 1.8-.7 2.8.2 1.3.3 2.5.3 3.9 0 1 0 2.8 1.3 3.2 2.5.8 6.1-1.1 8.1 1.5 1.8 2.4.5 5.6 1.3 8.6.3 1.2.6 2.5-.4 3.4zm15.8.5c-.5 1.5-4.2 1.7-3.5-.3.3-.9.2-2.3.2-3.3l-.2-3.3-.3-3.9c-1.9-.3-3.9-.1-5.8 0-.1 1.7-.3 3.4-.1 5 .2 1.7.9 3.8.4 5.5-.3 1-3.9 1.4-3.7.7.3-.9-.1-2.2-.2-3.1l-.3-3.1.2-6.1c.2-4.2-.6-8.5-.4-12.7 0-1.1 3.7-1.6 3.7-1-.2 4.3.6 8.7.4 13.1l5.6-.2v-.2c-.1-3.4-.6-6.8-.6-10.2 0-1.5 3.8-2.2 3.8-.3 0 3.6.6 7.1.7 10.7 0 2.3.4 4.7.5 6.9.1 1.8.3 4-.4 5.8zm15.4.2c-.8-2.6-2.2-5-3-7.6-.5-1.5-1.2-2.9-1.9-4.3a28.5 28.5 0 01-3.8 5.3c0 2 0 4-.2 6-.1 1-1.9 1.3-2.6 1.3h-.1c-.6 0-1.4-.4-1-1.1l.2-5c-.3-.1-.4-.3-.1-.6 0-6.5-1-13-1.2-19.5-.1-1.5 3.7-2.2 3.7-1 .2 5.3.8 10.5 1.1 15.8.9-1.4 1.6-2.9 2.4-4.4-.1-.5.1-.9.6-1.2l.2-.4 2.8-5.8c.7-1.7 1.6-3 3-4.1a4 4 0 012.6-.7c.7.1.7.5.2.9-1.5 1.2-2.1 3.1-2.9 4.8L79 18.5c1.1 2.5 2.5 4.8 3.4 7.4.9 2.6 2.2 5 3.1 7.6.5 1.7-3.2 2.7-3.7 1zm21.1-11.4l.1 5.4c0 1.3.5 3.8-.4 4.9-.5.6-1.4.9-2.2 1-.1 0-1.9.2-1.5-.3.8-.9.3-3.2.3-4.3l-.2-6.6c-1 .1-2 .4-3.1.3-1.3-.1-3.5-.7-4.8-.1l.1 2.3v7.9c0 1-3.7 1.5-3.7 1l-.1-10c-.2-2.9-.9-5.9-.4-8.8a6.5 6.5 0 014.3-5.4c2.1-.8 4.8-1.2 7.1-1.3 2.3-.1 3.6.8 3.8 3.1l.4 7.6v1c.9-.1 2-.1 2.2.7.2.8-1 1.5-1.9 1.6z"/></svg>