<svg xmlns="http://www.w3.org/2000/svg" xmlns:xlink="http://www.w3.org/1999/xlink"><symbol id="cart" viewBox="0 0 21 18"><path d="M20.19 6.86h-3.55L13.19.38c-.2-.38-.61-.48-1.02-.28-.4.19-.5.57-.3.95l3.14 5.8H5.78l3.15-5.8c.2-.38 0-.76-.3-.95A.82.82 0 007.6.38L4.16 6.86H.8c-.4 0-.81.28-.81.76 0 .38.3.76.81.76H1l.92 2.86c-.2.1-.3.28-.3.57 0 .38.3.67.7.67L4.06 18h12.88l1.73-5.52c.4 0 .7-.29.7-.67 0-.2-.1-.48-.3-.57L20 8.38h.2c.4 0 .81-.28.81-.76s-.4-.76-.81-.76zm-4.57 9.62H5.07l-1.21-4.1h13.08l-1.32 4.1zm1.63-5.53H3.35L2.54 8.3h15.52l-.81 2.66z"/></symbol><symbol id="checkbox-tick" viewBox="0 0 33 22"><path d="M32.37 1.36L31.01 0 11.57 19.29l-9.62-9.6L.6 11.05l9.62 9.6L11.57 22l1.46-1.36L32.37 1.36z"/></symbol><symbol id="facebook" viewBox="0 0 16 30"><path d="M12.3 5.94c1 0 2 0 2.7-.31.4-.83.6-1.98.6-3.12-.2 0-.1-.32-.2-.42 0-.21-.3-.21-.3-.42-.3-.2-.5-.41-.7-.62-.7-.21-1.4-.32-2.2-.52-.8 0-1.9-.1-2.6.1-2.6 0-3.99 1.15-5.29 2.5 0 .1 0 .2-.1.2-.6 1.68-.1 3.76-.2 5.84.1.42.1 1.04.2 1.46-1 .31-2.2.42-3.4.52-.3.31-.2 1.15-.2 1.77.1.63.3 1.15.4 1.67.2.2.6.41.8.52.1 0 .1.1.1.1.5.32 1.5 0 2.3.1-.1 2.09.3 4.07 0 5.94 0 .32.3.42.2.84 0 1.04-.1 2.08.2 2.81-.3.52-.5 1.04-.4 1.88.1 0 .1.2.1.3-.1.53.6.22.5.74.2.52-.4.2-.4.52v.93c.5.32 1.5.21 2.3.21.9-.41 2.2-.52 2.8-1.25.5.21.9 0 1.2-.2 0-.32.3-.32.2-.73 0-.32-.2-.52-.1-.94v-3.02c-.2-2.4 0-5.1-.3-7.5.9-.1 1.9-.1 2.6-.42.4-.52.4-1.25.5-1.98.2-.2.2-.62.2-1.04.2-.2.1-.73.1-1.15-.1-.62-.2-1.35-.8-1.45-.9-.21-2 .62-3 .3 0-1.14-.3-2.39 0-3.53.8-.21 1.5-.42 2.2-.63zm-3.8 5c.1.31.3.52.4.73.1 0 .2 0 .2.1 1.2.11 2.2-.1 3.1-.3 0 1.03-.3 1.76-.5 2.6-.7 0-1.5.31-2 .2-.3.21-.4.53-.6.73 0 .42.1.53 0 .84-.2.1-.1.62-.2.83v1.56c.1.32-.1.32-.1.52v3.65c-.1.31.1.31.1.52v3.13c.1.3-.1.83.1.93-.1.42-.4 0-.8.1-.5.11-.9.42-1.5.42.1-.41.3-.62.3-1.14 0-.42-.4-.31-.5-.52.2-.63.6-1.15.7-1.88.2-.52.7-1.35.3-1.87-.5-.1-.5.31-.8.41 0 .1 0 .21-.1.21 0 .1 0 .21-.1.21 0 .1-.2.1 0 0 0-.1 0-.2.1-.2 0-.11 0-.22.1-.22v-.3c.4-.63.7-1.26.8-2.1.2-.3.3-.72.4-1.03.2-.32.3-.94.1-1.25-.5 0-.8.31-.9.73-.3-.21.2-.42.1-.73.1-.21.2-.63.3-.84.2-.41.6-1.35 0-1.66-.4 0-.6.2-.7.52-.2.2-.4.41-.5.73-.4-.1-.1-.73-.2-1.15-.1-.52.1-.94 0-1.25-.59-.83-1.99-.1-3.19-.31-.1-.31-.2-1.04-.1-1.25 1-.1 2.5.2 3.2-.2 0-.11 0-.22.1-.22.1-.73-.3-1.04-.5-1.46.2-.83 0-2.08.1-3.12.2-.1.3-.42.5-.63.1-1.04.7-1.56.7-2.6-.3 0-.6-.1-.6.2-.3-.1-.4.53-.5.22-.1-.52.2-.63.3-1.04.6-.42 1.2-.84 1.9-1.25 1.7-.21 4.6-.42 6.1.2.1.63-.3.94-.2 1.57h-1.5c-1.1.2-2 .73-3 1.04-.2.1-.3.31-.5.41 0 .42-.2.63-.3 1.05-.3 1.45-.1 2.7-.1 4.16z"/></symbol><symbol id="flag" viewBox="0 0 47 81"><path d="M7.77 3.86v38.52L47 23.08 7.77 3.85zM0 80.9V0h3.83v80.9H0z" fill="#63D1BB"/><path d="M3.83.1H0V81h3.83V.1z" fill="#231F20"/></symbol><symbol id="form-mail" viewBox="0 0 32 21"><path d="M28 0H4C1.8 0 0 1.8 0 4v13c0 2.2 1.8 4 4 4h24c2.2 0 4-1.8 4-4V4c0-2.2-1.8-4-4-4zM2 5.3l7 5.3-7 5.3V5.3zM30 17a2 2 0 01-2 2H4a2 2 0 01-2-2l7.8-5.9 4.4 3.3a3 3 0 003.6 0l4.4-3.3L30 17zm0-1.2l-7-5.3 7-5.3v10.6zm-12.8-2.2c-.4.3-.8.4-1.2.4-.4 0-.9-.1-1.2-.4l-4.1-3.1-.8-.6L2 4c0-1.1.9-2 2-2h24a2 2 0 012 2l-12.8 9.6z"/></symbol><symbol id="form-phone" viewBox="0 0 25 24"><path d="M17.44 24h-1.1a17.63 17.63 0 01-11.2-5.73A18.8 18.8 0 010 6.72V5.33c.1-.89.5-1.48 1.1-2.07.61-.7 1.62-1.48 2.53-1.58.7 0 1.81.5 2.22 1.09.4.49.6 1.58.8 2.37.2.88.6 1.97.5 2.76-.2 1.19-1.8 1.68-2.21 2.57a16.4 16.4 0 007.56 8.2c.8-.5 1.61-1.88 2.82-1.88.4 0 1.01.2 1.41.3.5.1.91.3 1.31.49.71.3 2.02.6 2.42 1.19.4.59.7 1.58.6 2.17-.3 1.28-2.41 2.66-3.62 3.06zM12.6 1.48a10.8 10.8 0 0110.9 10.67H25C25 5.43 19.46 0 12.6 0v1.48z"/><path d="M12.6 9.19v1.58c.8 0 1.41.59 1.41 1.38h1.62a3 3 0 00-3.03-2.96zm0-3.07a6.11 6.11 0 016.15 6.03h1.61c0-4.15-3.42-7.5-7.66-7.5v1.47h-.1z"/></symbol><symbol id="header-search" viewBox="0 0 18 18"><path d="M17.7 16.06l-3.48-3.48a7.63 7.63 0 001.53-4.7c0-4.4-3.48-7.88-7.88-7.88A7.81 7.81 0 000 7.88c0 4.4 3.48 7.87 7.88 7.87 1.73 0 3.37-.61 4.7-1.53l3.48 3.47c.2.2.4.31.82.31.6 0 1.12-.51 1.12-1.13 0-.2-.1-.5-.3-.81zM2.24 7.88a5.67 5.67 0 015.63-5.63 5.67 5.67 0 015.62 5.63 5.67 5.67 0 01-5.63 5.62 5.67 5.67 0 01-5.62-5.63z"/></symbol><symbol id="huge-arrow-left" viewBox="0 0 50 26"><path d="M50 11H7.7l8.1-8.2L13 0 0 13l13 13 2.8-2.8L7.7 15H50v-4z"/></symbol><symbol id="icon-flower" viewBox="0 0 33 38"><path d="M16.5 38C25.57 38 33 30.65 33 21.66A16.4 16.4 0 0016.5 38zM4.74 16.65a4.5 4.5 0 007.12 3.68v.3c0 2.56 2.06 4.5 4.54 4.5a4.49 4.49 0 004.53-4.5v-.3c.73.5 1.65.82 2.58.82a4.49 4.49 0 004.54-4.5 4.43 4.43 0 00-2.58-4.09 4.43 4.43 0 002.58-4.08 4.54 4.54 0 00-7.12-3.68v-.3c0-2.56-2.06-4.5-4.53-4.5a4.49 4.49 0 00-4.54 4.5v.3a4.54 4.54 0 00-2.58-.82 4.49 4.49 0 00-4.54 4.5 4.43 4.43 0 002.58 4.08 4.61 4.61 0 00-2.58 4.1zM16.5 7.97a4.49 4.49 0 110 8.99 4.49 4.49 0 110-9zM0 21.66C0 30.65 7.42 38 16.5 38A16.4 16.4 0 000 21.66z"/></symbol><symbol id="icon-gift" viewBox="0 0 33 32"><path d="M3.03 32h12.61V18.27H3.03V32zM31.39 8.7h-7.37c.5-.3 1-.5 1.41-.8 1.62-1.09 2.42-2.57 2.42-3.95 0-1.18-.6-2.17-1.41-2.86A4.72 4.72 0 0023.41 0c-1.2 0-2.42.4-3.33 1.09a10.36 10.36 0 00-3.43 4.05c0 .1-.1.2-.1.2-.3-.6-.6-1.2-1-1.78a8.5 8.5 0 00-2.53-2.47C12 .49 10.9 0 9.69 0S7.37.5 6.46 1.28a4.39 4.39 0 00-1.41 3.07c0 .69.2 1.48.6 2.17.6.89 1.41 1.58 2.63 2.17H1.6A1.6 1.6 0 000 10.27v5.83h15.54V8.7h1.92v7.4H33v-5.83c0-.89-.7-1.58-1.61-1.58zM8.89 6.41a4.4 4.4 0 01-1.22-1.09c-.2-.4-.3-.69-.3-.98 0-.5.2-1 .7-1.49.4-.4 1.01-.69 1.62-.69.7 0 1.41.2 2.02.7a7.6 7.6 0 012.62 3.15c.3.7.6 1.39.8 2.08-3.12-.3-5.14-.99-6.25-1.68zm10.59-1.58a6.84 6.84 0 011.91-1.88c.71-.5 1.42-.69 2.02-.69.6 0 1.11.2 1.52.5.4.3.6.69.6 1.18 0 .5-.3 1.28-1.51 2.07-1.11.8-3.13 1.68-6.16 2.28.3-1.19.91-2.47 1.62-3.46zM17.46 32h12.61V18.27H17.46V32z"/></symbol><symbol id="icon-heart" viewBox="0 0 34 27"><path d="M34 8.45C34 3.79 29.98 0 25.04 0c-3.5 0-6.5 1.94-8.04 4.66A9.12 9.12 0 008.96 0C4.02 0 0 3.79 0 8.45 0 17.29 15.15 27 17 27c1.96 0 17-9.62 17-18.55z"/></symbol><symbol id="icon-money" viewBox="0 0 47 27"><path d="M43.07 0H3.93A3.84 3.84 0 000 3.86v19.28A3.84 3.84 0 003.93 27h39.14A3.84 3.84 0 0047 23.14V3.86A3.97 3.97 0 0043.07 0zM3.03 24.73V2.77h40.54v21.96H3.03z"/><path d="M6.96 20.87h32.68V6.63H6.96v14.24zM23.5 8.5a5.33 5.33 0 015.35 5.24 5.33 5.33 0 01-5.35 5.24 5.33 5.33 0 01-5.35-5.24A5.27 5.27 0 0123.5 8.5z"/></symbol><symbol id="icon-rocket" viewBox="0 0 55 23"><path d="M40.95 5.75c-3.64-1-7.89-1.69-12.54-1.69-2.93 0-5.56.2-7.79.6L13.75 0H.1l5.87 6.15h8.49C9.8 7.73 7.58 9.62 7.58 9.62v3.76s2.33 1.89 6.98 3.47h-8.7L0 23h13.65l6.87-4.66a49.05 49.05 0 0020.32-1.09 10.14 10.14 0 01-1.92-5.85c.1-1.98.91-3.87 2.03-5.65zm3.54.99c-1.32 1.59-2.03 3.17-2.03 4.76 0 1.59.71 3.17 2.03 4.76C50.96 14.08 55 11.5 55 11.5s-4.04-2.58-10.51-4.76z"/></symbol><symbol id="icon-wool" viewBox="0 0 35 34"><path d="M.3 13.95c-.4 2.08-.4 4.16 0 6.24l4.18-3.17-4.17-3.07zM24.85 1.59a17.96 17.96 0 00-15.58.4l7.64 5.53 7.94-5.93zm9.68 11.47l-4.9 3.66 5 3.66c.5-2.37.5-4.94-.1-7.32zm-25.16 19a17.84 17.84 0 0016 .1l-8.26-6.04-7.74 5.94zM8.05 14.25L1.73 9.7c-.3.7-.61 1.38-.81 2.08l5.4 3.95 1.73-1.48zm10.89 10.58l8.46 6.14c.3-.2.61-.4.81-.6.3-.2.61-.49.92-.79l-8.45-6.13-1.74 1.38zm-7.33-13.25L4.07 6.14c-.5.5-.91 1.09-1.32 1.68l7.03 5.14 1.83-1.38zM22.5 22.16l8.26 6.04c.5-.5.92-1.09 1.32-1.68l-7.84-5.74-1.73 1.38zM15.18 8.9L7.33 3.18c-.2.1-.4.3-.6.4-.42.3-.82.59-1.13.98l7.84 5.64 1.74-1.28zm10.89 10.5l7.13 5.14c.3-.7.62-1.29.92-1.98L27.91 18l-1.84 1.38zm.82-16.73L.92 22.37c.2.68.5 1.38.81 2.07l27-20.48a8.84 8.84 0 00-1.84-1.29zm4.38 3.86a9.4 9.4 0 00-.92-1.09L2.85 26.22c.2.5.51.89.82 1.19.1.2.3.4.4.5l27.7-20.78c-.2-.2-.3-.4-.5-.6zM32.9 8.9L5.7 29.49c.51.5 1.12 1 1.74 1.39L33.92 10.9c-.3-.7-.61-1.39-1.02-1.98z"/></symbol><symbol id="instagram" viewBox="0 0 23 22"><path d="M22.6 12.6c0-2.4-.3-4.8-.3-7.1 0-.8-.1-1.5-.2-2.3-.1-.3-.1-.7-.2-1.1-.3-.2-.2-.6-.5-.8-.4-.2-1.2-.1-1.7-.2-.7 0-1.3-.1-1.9-.2-1.9-.1-4-.1-6-.1S7.8.7 6.1.4H3.9c-.1 0-.1.1-.2.1-.6 0-1.1.2-1.6.3-.2.1-.4.2-.7.3-.1.2-.5.1-.6.4-.2.2.2.5 0 .6V3c.2.1 0 .6.1.8v1c0 1.3.1 2.4.1 3.7.5 2.8.4 6.5.1 9.4.2.6.4 1.1.5 1.7.3.5.3 1.1.7 1.5.5.2 1.2.2 1.9.2.4.1.7.3 1.1.3 2.8-.2 5.5-.2 8.4-.2 2.7.2 5.8.2 8.3-.2.2-.1.1-.5.2-.8-.1-.4.2-.4.2-.8.2-2.1.2-4.5.2-7zm-13-6.2c.8-.2 1.5-.3 2.4-.3.7.1 1.3.3 1.9.5.1.2-.2.5.2.7.1 0 .1 0 .2.1.4 0 .8.2 1.1.4.5.1.5.5 1.1.4-.1.2-.1.5-.1.8.3 1.2.5 2.8.3 4.3-.2.2-.2.4-.3.7-.3.3-.5.8-.8 1.1-.1.2-.3.4-.5.5-.1.2-.2.5-.5.5-.3.2-.6 0-.8-.1-.4.2-.9.3-1.2.6l-2.4-.3c-.2-.1-.5-.3-.8-.3-.2-.2-.5-.4-.8-.5-.1-.1-.3-.1-.5-.2-.2 0-.2-.2-.5-.2-.1-.4-.4-.6-.5-1.1-.2-.3-.3-.8-.5-1.2 0-1.4.1-2.7.4-3.8.3-.6.8-1.1 1.1-1.7.2 0 .4-.1.4-.3.3.1.4-.1.7-.1.2 0 .2-.3.4-.5zM7.9 3.7c-.1-.3-.1-.7-.1-1.1 0-.3.3-.3.3-.5C8.1 2 8 2 7.9 2c.1-.1.7-.1.8 0 .1.5-.4.5-.5.7 0 .2.3 0 .5.1 0 .9-.1 1.5 0 2.2h-.5c0 .2.2.2.5.2-.1.3.1.4.1.6-.2.2-.7 0-1.1.1 0-.6.3-1.4.2-2.2zm-.7-1.6c.1 0 .1 0 .2.1.2.3 0 .7-.1.9-.2-.2 0-.7-.1-1zm.2 1.8c-.1-.1-.2-.2-.2-.5.2.1.2.3.2.5zm0 1.4c-.1.1-.1 0-.1-.2.1-.1.1.1.1.2zm-.2.2c.2 0 .1.2.2.2 0 .2-.3.2-.4.1.1-.1.2-.2.2-.3zM4.9 4.3c0-.1 0-.2-.1-.2-.1-.7.1-1.4 0-2 .3-.2.8 0 1.1-.1v1.1c-.1.1-.2.1-.4.1-.1.3.3.1.4.3 0 .9-.1 1.8.2 2.4-.6-.1-.9.1-1.4.1.1-.6 0-1.4.5-1.6 0-.1-.3 0-.3-.1zm-.5 0c-.2 0-.2-.5-.1-.6.3 0 .2.5.1.6zm-.2 1c.1-.3 0-.3.1-.7.2 0 .2.8-.1.7zm.2-2.1c-.3.1-.3-.3-.2-.4.3 0 .4.3.2.4zm0-1.1c0 .2-.1.2-.1.3-.2 0-.1-.2-.2-.2.1-.1.2-.1.3-.1zm-.2 3.7c.1 0 .1.3-.1.2.1 0 .1-.1.1-.2zm-.7-3.7c0 .3-.4.3-.4 0h.4zm-1 .1c0 .2-.3.2-.4.4-.2-.2.1-.5.4-.4zm-.4.7c.2-.2.5-.4.7-.6 0-.1.1-.1.1-.2h.2c.1.4-.3.3-.3.5 0 .1-.1.1-.1.2 0 .3.1.6.1 1-.3 0-.3.3-.6.2 0-.4-.2-.6-.1-1.1zm.1 3.3V4.6c.2-.2.4-.4.6-.5.3.5.2 1.4.5 1.9-.4.1-.8.1-1.1.2zm18.2 11.1c-.1 1-.2 2-.4 2.8-2.9.1-6 0-8.9.2-.2 0-.3 0-.2-.2-.3 0-.3.2-.5.2.2-.3.4-.9.2-1.3-.8 0-.8.8-1.1 1.3-.7-.1-1.1.1-1.8.1.2-.7.7-1 .9-1.7-.4-.5-1 .1-1.2.5-.2.5-.6.8-.8 1.3h-1c.2-.5.5-.9.8-1.4.2-.5.6-.7.7-1.4-.2-.3-.4 0-.7 0-.1.2-.3.3-.4.5-.2.4-.5.7-.7 1.1-.2.2-.3 0-.5.2-.4.3-.6.7-1 1-.2-.1 0-.4.2-.4 0-.2-.1-.5.1-.6.1-.4.2-.6.4-.9.1-.7.5-1.2.7-1.9-.6.1-.7.6-1 1-.2.4-.5.8-.7 1.3-.2-.1 0-.6-.1-.8.1-.6.3-1.1.4-1.7.1-.2.2-.5.2-.8.2-.2 0-.6-.1-.8-.2 0-.4.1-.5.3-.2 0-.2.5-.3.3 0-2.6-.5-4.8-.5-7.4 0-.3-.2-.4-.2-.7 1.6 0 3.1.1 4.8.2-.1.1-.2.3-.3.4-.1.1-.2.2-.4.3-.6 1.7-1 4-.6 6.2.2.6.6 1 1 1.4.9.5 1.6 1.1 2.5 1.7 1.7.4 3.8.4 5.5 0 .2-.1.5-.2.7-.4 1.4-1.2 2.8-2.5 3-4.9v-1.4c-.2-1.6-.7-2.9-1.7-3.6.3-.2 1.1 0 1.7.1h.7c.4 0 .9-.1 1.4 0 .1.2.1.5.2.8-.1 1.7-.2 3.3-.2 5.1.1.5.1 1 .2 1.4-.2.8-.3 1.7-.5 2.6zm.4-11.2c-.6-.1-1.2-.3-1.9-.4.1-.3.8 0 1-.2.4-.2.3-.9.3-1.5 0-.3.1-.6.1-1.1-.4-1-1.8-.4-2.9-.5-.2.7-.5 1.8-.3 2.7.2.5 1 .3 1.5.5-.1.3-.7.1-1 .1-.3-.1-.7-.1-1-.2-2.3.1-4.3 0-6.5.2.1-1.2.1-2.5-.1-3.6h3.1c-.3.4-.9.5-1.3.8-.4.2-.9.5-1.1.9.2.1.5-.2.8-.4.4-.1.5-.4.8-.5.4-.4 1.1-.6 1.7-.9.4 0 .7 0 1 .1 1.3 0 2.5.1 3.8.1.6.1 1.5.1 2 .3l.3.9c-.1 1-.3 1.8-.3 2.7zm-5.9-3.7c.1-.1 0-.1 0 0zm0 0c-.5.2-1 .3-1.4.7.5-.2 1.1-.3 1.4-.7zM16 3c.1-.1 0-.1 0 0zm-1.8.9c.7-.2 1.2-.6 1.7-.9-.4 0-.6.3-1 .4-.1.2-.5.2-.7.5zm-.7-.8c-.1 0 .1.1 0 0zm-.6.6c.1-.1 0-.1 0 0zm-.1.1c.1 0 .1-.1 0 0 0-.1 0-.1 0 0zm-.1 0c.1 0 .1 0 0 0 0-.1 0 0 0 0zm-.8.6c.3-.1.6-.3.8-.6-.3.2-.6.4-.8.6zm2.3 1c.5 0 .7-.4 1.2-.5.3-.3.8-.4 1-.8-.6 0-.8.4-1.2.5-.3.4-.8.5-1 .8zm-2.3-1c-.3 0 0 .3 0 0zm-.6.4c.1 0 .2 0 0 0 .1-.1 0 0 0 0zm2.9.6c-.2.1 0 .1 0 0zM13 7.2c-.2-.2-.7-.2-1-.4-.7 0-1.2.1-1.7.2-.3.2-.6.3-.9.5-.3.2-.4.4-.8.5-.2.2-.4.5-.7.6 0 .2-.2.3-.3.4-.1.1-.1.3-.2.4 0 .1 0 .3-.1.3.1 1.5.3 2.9.7 4.2.3.6 1 .8 1.4 1.3.6.3 1.3.4 2.1.5.3-.1.6-.1.9-.1 1.2-.2 2.1-.7 2.8-1.4.1-.3.3-.5.5-.7-.3-.7.3-1.1.5-1.6 0-1.3-.2-2.5-.6-3.4-.3-.6-.9-.8-1.4-1.1-.1 0-.2 0-.2-.1-.2-.1-.7-.2-1-.1zm-3.4 4.4c-.1-.1-.1-.2-.2-.4.3-.1.2.2.2.4zm.1.3c0-.1.1 0 0 0 0 .2 0 .1 0 0zm.4-2.1c0-.1.1 0 0 0 .1.1 0 .1 0 0zm1.7-2.1c-.2.3 0 .6.1.8-.3 0-.6-.8-.1-.8zm.4 3.9c-.1 0 0 0 0 0 .1 0 0 .1 0 0zm.7 2.9c0-.1.1 0 .2 0 0 .1-.2.1-.2 0zm2.2-2.5c-.2-.1-.1.2-.4.2.1-.2.1-.3.2-.5.2 0 .3.1.2.3zM14 8.2c.2.1.4.2.6.4.1.2.2.4.4.5.1.8.2 1.5.2 2.4-.3.1-.4.3-.7.4-.8 0-1.4-.2-1.9-.5-.2-.3-.4-.5-.5-.8V9.5c.2-.2.3-.4.5-.6.2-.1.5-.2.5-.6 0-.1-.1-.1-.1-.2.2 0 .2.2.4.2s.3-.2.6-.1z"/></symbol><symbol id="logo-htmlacademy" viewBox="0 0 27 34"><path d="M13.65 0h-.1L0 1.4v24.62L13.55 34 27 26.02V1.4L13.65 0zM25.1 12.06L13.55 5.28v-.1h-.1l-.1-.1v.1L1.9 12.06V3.1l11.54-1.2 11.64 1.2v8.97zM13.45 6.78l11.54 6.68-4.51 2.6-7.13-4.2v1.4l5.92 3.5-.9.49-5.02-3v1.4l3.81 2.3-.8.5-3.01-1.8v1.4l1.9 1.1-1.8 1.1-11.44-6.69 11.44-6.78zM1.91 15.06l11.44 6.78v1l-7.93-4.7v1.4l8.03 4.79v1.1l-8.03-4.7v1.4l8.03 4.8 8.13-4.9v-5.18l3.41-2v9.98L13.45 31.7 1.91 24.93v-9.87z"/></symbol><symbol id="mail" viewBox="0 0 32 21"><path d="M28 0H4C1.8 0 0 1.8 0 4v13c0 2.2 1.8 4 4 4h24c2.2 0 4-1.8 4-4V4c0-2.2-1.8-4-4-4zM2 5.3l7 5.3-7 5.3V5.3zM30 17a2 2 0 01-2 2H4a2 2 0 01-2-2l7.8-5.9 4.4 3.3a3 3 0 003.6 0l4.4-3.3L30 17zm0-1.2l-7-5.3 7-5.3v10.6zm-12.8-2.2c-.4.3-.8.4-1.2.4-.4 0-.9-.1-1.2-.4l-4.1-3.1-.8-.6L2 4c0-1.1.9-2 2-2h24a2 2 0 012 2l-12.8 9.6z"/></symbol><symbol id="main-header-interior" viewBox="0 0 41 62"><path d="M15.5 37.66c-.3.99-.2 2.18 0 3.57.51 2.59 1.74 5.96 2.45 9.64h5.2c.72-3.58 1.94-6.95 2.55-9.64.3-1.39.3-2.68 0-3.57-.3-.9-.92-1.6-2.04-2.29h-6.12c-1.22.7-1.83 1.4-2.04 2.29zm12.04 19.87H13.46c-1.32 0-2.34 1-2.34 2.18v2.19h18.76v-2.19c0-1.19-1.02-2.18-2.34-2.18zm7.24-55.34H22.85C22.85.99 21.83 0 20.5 0s-2.35 1-2.35 2.19H6.22L0 27.52c.82-.5 1.63-1 2.65-1 1.43 0 2.25.8 2.96 1.4.71.6 1.22.8 1.43.8.3 0 .81-.3 1.53-.8.71-.5 1.63-1.4 2.95-1.4 1.33 0 2.25.8 2.96 1.4.72.5 1.23.8 1.53.8.1 0 .3-.1.61-.2.2-.1.51-.4.92-.6.51-.4 1.12-1 2.04-1.2.3-.1.61-.1.92-.1 1.33 0 2.24.8 2.96 1.4.71.5 1.22.8 1.53.8.3 0 .81-.3 1.43-.8.7-.6 1.63-1.4 2.95-1.4 1.43 0 2.25.8 2.96 1.4.3.3.61.5.92.6.2.1.4.2.61.2.3 0 .82-.3 1.43-.9.71-.6 1.63-1.4 2.96-1.4 1.02 0 1.83.5 2.65 1L34.78 2.2zM23.97 53.06h-7.04c-.71 0-1.12.5-1.12 1.09 0 .6.5 1.1 1.12 1.1h7.04c.71 0 1.12-.5 1.12-1.1.1-.6-.4-1.1-1.12-1.1z"/><path d="M20.5 28.71c-.1 0-.3.1-.61.2-.2.1-.41.3-.61.4v3.68h2.34V29.4c-.5-.4-.92-.7-1.12-.7z"/></symbol><symbol id="main-header-toy" viewBox="0 0 61 61"><path d="M0 44.73L27.86 61V37.15L0 20.78v23.95zm52.16-32.04v2.56c0 1.84-3.56 3.38-7.83 3.38-4.38 0-7.83-1.54-7.83-3.38v-4.2c.3 1.74 3.66 3.18 7.83 3.18 4.37 0 7.83-1.54 7.83-3.38 0-1.84-3.56-3.38-7.83-3.38H43.3L38.23 4.5v3.18c0 1.84-3.56 3.37-7.83 3.37-2.75 0-5.08-.61-6.5-1.53-.21-.2-.41-.41-.72-.62-.4-.4-.61-.81-.61-1.22V4.6l-4.88 2.86h-1.12c-4.37 0-7.83 1.54-7.83 3.38 0 1.84 3.56 3.38 7.83 3.38 4.17 0 7.52-1.44 7.83-3.18v4.2c0 1.84-3.56 3.38-7.83 3.38-4.37 0-7.83-1.54-7.83-3.38v-2.46l-6.1 3.59L30.6 32.75l27.86-16.27-6.3-3.79zM38.33 23.13c0 1.84-3.56 3.38-7.83 3.38-4.37 0-7.83-1.54-7.83-3.38v-4.2c.3 1.74 3.66 3.18 7.83 3.18s7.52-1.44 7.83-3.18v4.2zm-5.19 14.23V61L61 44.73V21.08L33.14 37.36zM30.4 6.76c4.37 0 7.83-1.54 7.83-3.38C38.23 1.54 34.67 0 30.4 0c-4.37 0-7.83 1.54-7.83 3.38 0 1.84 3.46 3.38 7.83 3.38z"/></symbol><symbol id="map-pin" viewBox="0 0 67 100"><path d="M57.13 9.15c-13.1-12.2-34.21-12.2-47.3 0-13.1 12.2-13.1 31.95 0 44.15 0 0 23.64 21.63 23.64 46.63 0-25 23.66-46.63 23.66-46.63 13.1-12.1 13.1-31.95 0-44.15z" fill="#fff"/><path d="M47.69 45.16c-.61-3.27.1-6.84 0-10.21-.1-3.77-.71-7.44-.71-11.12 0-2.97.5-6.15-.51-9.02.1-.3.1-.7.2-1 .3-1.48-4.67-.69-5.38.6-.5.4-.7.9-.5 1.29.1.1.1.2.1.4-.92 4.46-2.24 8.73-3.76 13.1-.61 1.68-1.22 3.27-1.83 4.85a67.03 67.03 0 01-2.33-4.66c-1.93-4.76-3.76-9.62-6.1-14.19.31-2.08-4.56-1.88-5.48 0-1.11 2.38-1.01 4.77-.6 7.25.4 2.87.5 5.65.5 8.53.1 5.55.51 11 .61 16.57-.5.59-.6 1.19-.1 1.88.2.3.5.5.81.8 1.32.99 4.98.2 4.98-1.8 0-5.75-.4-11.4-.61-17.15v-1.7c.1.2.2.4.2.6a41.3 41.3 0 003.15 6.45c1.22 2.09 1.83 4.27 2.54 6.45-.3.3-.41.6-.3 1-.11.29.1.39.4.49.91.8 2.64.4 3.55 0l1.22-.6c.5-.3 1.22-.99 1.01-1.58 0-.1-.1-.3-.1-.4.71-1.79 1.02-3.57 1.42-5.46a38.44 38.44 0 011.83-5.75c.1.9.1 1.69.2 2.58.3 3.57 0 7.04 0 10.61 0 1.2.1 2.29.3 3.38.11.5.52 2.48.41 2.58-.9.79-.6 1.78.51 1.98 1.32.3 2.95-.1 3.96-1 1.63-1.38.81-3.76.4-5.75z" fill="#6BC6B3"/></symbol><symbol id="menu-close" viewBox="0 0 21 20"><path d="M21 1.37L19.57 0l-9.02 8.59L1.43 0 0 1.37l9.01 8.68L0 18.63 1.43 20l9.12-8.59L19.57 20 21 18.63l-9.01-8.58L21 1.37z"/></symbol><symbol id="mishka-logo-desktop" viewBox="0 0 149 72"><path d="M63.7 12.5c.1.2.6.2.8.2l1.1-.2c.4-.2 1.1-.6.8-1.1l-1-1.8c-.1-.2-.6-.2-.8-.2l-1.1.2c-.4.2-1.1.6-.8 1.1.3.7.6 1.4 1 1.8zm-42.9-1.6c.2.6 1.1.6 1.6.5.5-.1 1.4-.6 1.2-1.3-.2-.6-.4-1.3-.9-1.8s-1.3-.4-1.9-.2c-.4.2-1.2.8-.7 1.3.4.6.5.9.7 1.5zm10.1 2.9c.8 0 3.1-1.3 1.2-1.3-.9 0-3.1 1.3-1.2 1.3zm92.5-1.5c.3.1.7 0 1.1-.1.3-.1.7-.2.9-.5l1-1.2c.1-.2.2-.4 0-.6-.2-.2-.5-.2-.8-.3l-1.1.2c-.3.1-.6.3-.8.6l-.4.5-.2.2-.3.6c.1.4.3.5.6.6zm13.4 5.3c.6-.1 1.4-.2 1.9-.7 1.3-1.1 2.6-2.2 3.6-3.6.3-.4-1-.2-1.1-.2-.5.1-1.3.3-1.7.7-.9 1.3-2.2 2.3-3.4 3.4-.5.4.4.4.7.4zm10.9 26.7h-4.9c-.6 0-1.5.5-1.6 1.1-.1.7.8.9 1.3.9h4.9c.6 0 1.5-.5 1.6-1.1.1-.7-.7-.9-1.3-.9zM57.4 60.1c-.5.1-1.4.3-1.6.8l-1.4 3.8c-.2.7 2.6.3 2.8-.5.4-1.3.8-2.6 1.4-3.8.2-.5-1-.3-1.2-.3zm4.6 2.6l-1 .2-1 .4c-.1.1-.3.2-.3.4v.3l-.1.3v.3l.7.1c.4 0 .7-.1 1.1-.3l.8-.4.3-.5V63c0-.3-.4-.3-.5-.3zm55.5 3.6c-.4-.7-3 .3-2.8.8.8 1.6 1.9 3.1 2.9 4.6.4.7 3-.4 2.8-.8-1-1.5-2.1-3-2.9-4.6zm4-2.3c-.3-.6-1.1-.6-1.6-.4-.4.1-1.5.6-1.2 1.2l1.2 2.3c.3.6 1.1.6 1.6.4.4-.1 1.5-.6 1.2-1.2l-1.2-2.3zM5.7 42.7l-4.5 1c-.5.1-1.3.6-1.2 1.3.2.7 1.1.7 1.7.6l4.5-1c.5-.1 1.3-.7 1.2-1.3-.2-.7-1.2-.7-1.7-.6zm114.6-17.1c-.9-.6-1.9-.4-2.9-.2-.7.1-1.8 0-2.4.4-2.2 1.5-2.5 4.6-2.3 7l.3 3.8c2.2-.4 4.5-.1 6.8 0l1.7-.1-.3-6c0-1.3.3-4.1-.9-4.9z"/><path d="M144.2 31.1c-1.5 1.1-3.1 1.9-4.7 2.8 0-1.7-.1-3.5-.6-5l.1-1c.4-3 .7-7-2-9.1-.3-.3-1.2 0-1.9.3l-.5-.4-.2-.7-.4-.2c.3-.4.3-.8-.4-1.1l-1.1-.4-.2-.1-2.9-.7.6-1 .4-.4.2-.2.1-.1.1-.1c.4-.3.8-.9.2-1.2-.6-.3-1.5-.1-2 .2-.9.7-1.6 1.4-2.1 2.4-2-.2-4-.2-6.1-.1l.1-.3c.2-.6-.9-.5-1.2-.5l-4.7.6c1.4-3.8 3.1-8.5 1-12.1-1.2-2.1-3.9-2.6-6.1-2.7-2.4-.1-4.9.5-7 1.6-4.8 2.6-7.1 7.6-8.3 12.9-.5-.7-2.3-.4-2.6.5l-.3 1-.3.6v.2h-.2l.1-.3.3-.4a131 131 0 011.9-6.7c.3-.8-2.5-.4-2.8.4l-1.1 3.6-.4.3v.1a.8.8 0 00-.5-.2v-1c0-.4-2.8 0-2.8.8V15l-.5.3-.2.2-.1.2v.1l-.1.1c-.1.1-.2.3 0 .5s.5.2.7.2h.1v.5h-.7l-.4-.1c0-.4-.7-.5-1.4-.3v-.1l-.2-1.8.7-.3c.2-.1.3-.2.3-.4v-.2c0-.2-.4-.2-.5-.2H83l-.1-3.8c0-.8-2.8-.3-2.8.8 0 1.8 0 3.6.2 5.2H80v-1.5c0-1-1.3-1.2-2.1-.8.3-.3.5-.6.4-1a32 32 0 01-1-4.2c-.2-1.4-3-.7-2.8.8.2 1.5.6 2.9 1 4.2.2.8 1.3.9 2.1.5-.2.2-.4.5-.4.8v.6c-.3-.3-.5-.3-.9-.3-1.1 0-1.7.9-1.4 1.5l-.5-.1c-.4-1.2-.7-2.5-.7-3.8 0-.9-1.3-1-2.1-.7v-.2c-.4-.8-.6-1.7-.8-2.5-.3-1.3-3.2-.6-2.8.8l.5 1.9h-.1l-.9.4c-.8.1-1.8.6-1.8 1.2l.2 1.4-1.5.2-.6-2.4c-.1-.9-1.6-.9-2.3-.3-.8-2.1-1.8-3.9-3.1-5.7A12.7 12.7 0 0046.5 3a9.3 9.3 0 00-5 2.6 5.8 5.8 0 00-1.2 4.7c.2 1.5.6 3.9 1.6 5.9l-.9.1-.8.4-5.8-.1c-4.2-.2-8.4-.9-12.6-.7-.9 0-1.5.7-1.5 1.3-1 .5-1.7 1.3-2.1 2.3-1.7-1.1-3.5-2.3-5.3-3.2-.7-.4-3.3.7-2.3 1.2 1.8.9 3.6 2.1 5.3 3.2.5.3 1.3.1 1.8-.1l.2-.1c-.3 1.4-.2 3.1.2 4.4l.2.3v1.2c-.4.2-.7.5-.8.8l-.3 4.1c-.3.2-.5.5-.5.8a47 47 0 00.5 9.9c.2 2.7.7 5.2 1.2 7.9l.2 1.3a8.3 8.3 0 00-.2 3.5c-.9.2-1.7.9-1.2 1.6a8 8 0 002.6 2.6c-.6-.1-1.4.1-1.9.6l-2.5 2.3c-.4.4-.3.9.3 1.1.7.2 1.5-.1 2-.5l2.5-2.3c.2-.2.3-.5.2-.7 3.2 1.7 7.2 1.3 11.2.9-.9 1.6-1.5 3.3-2.2 4.9-.3.7 2.5.4 2.8-.4.6-1.7 1.2-3.3 2.1-4.8l11.3.1c.1.2.4.3.7.3a36 36 0 009.8-.7l14.5-.8a861 861 0 0122.8-.3l.3.3c.3.3.6.3 1 .3h.2l2.1.1h.6l2.3.2.8.4 11.5.7c.1.2.5.3.8.3 7.1.1 15.4 2.8 21.7-1.7.5-.4.3-.9-.3-1h-.3a50 50 0 002.9-8.5c.4-.2.6-.5.6-.9 0-1.2.2-2.4.4-3.6l.4-2.7c.4-2.2.8-4.3 1-6.4 2.3-1.1 4.5-2.3 6.6-3.8 1.6-1.2-.8-1.9-1.8-1.2zM43.8 51.3c-.7.6-1.9.9-2.8.7-.8-.1-1-.8-.4-1.4.1-.1-.2-1.6-.3-1.9l-.2-2.5c0-2.6.2-5 0-7.6l-.2-1.9c-.5 1.4-1 2.8-1.3 4.1-.3 1.4-.5 2.7-1 3.9l.1.3c.2.5-.4 1-.7 1.2l-.8.4c-.6.3-1.9.6-2.5 0-.2-.1-.3-.2-.3-.4-.1-.2 0-.5.2-.7-.5-1.6-.9-3.2-1.8-4.6a32 32 0 01-2.2-4.6l-.2-.4v1.2c.1 4.1.4 8.2.4 12.3 0 1.4-2.6 2-3.5 1.3l-.6-.6c-.4-.5-.3-1 .1-1.4 0-3.9-.4-7.9-.4-11.8 0-2.1-.1-4-.4-6.1-.3-1.9-.4-3.6.4-5.2.7-1.4 4.1-1.5 3.9 0 1.7 3.3 2.9 6.7 4.3 10.2l1.7 3.4 1.3-3.6c1-3.1 1.9-6.2 2.6-9.4l-.1-.3c-.1-.4.1-.7.4-1 .5-1 4-1.6 3.8-.5l-.1.7c.8 2.1.4 4.3.4 6.5 0 2.7.4 5.3.5 8 0 2.4-.5 5 .1 7.4.2 1.5.8 3.3-.4 4.3zm3.5-27.1v-.4c-.1-.2-.2-.4-.1-.6l.1-.4c-.2-1-.1-2-.1-3 0-.9 1.5-1.4 2.2-1.5.8-.1 1.8.2 1.8 1.2 0 1.1-.1 2.3.4 3.4.3.6-.2 1.1-.7 1.4l-.3.2c-.4.3-1 .4-1.5.5-.5 0-1 0-1.4-.3l-.4-.5zm5.3 26c-.5.6-1.5.9-2.3 1-.1 0-2 .2-1.6-.3.7-.8 0-2.6-.1-3.6-.2-2.1.2-4.1-.1-6.2-.2-2.1-.7-3.8-.7-5.9s.1-4.2-.2-6.3c-.1-1 3.9-1.8 4-1.1.4 2.3.2 4.5.2 6.8 0 2 .7 3.8.8 5.8.1 2.1-.1 4.1.1 6.4.1 1 .6 2.6-.1 3.4zm17.4-.7c-1 .8-2.1 1.4-3.3 1.8-2.4.7-5.1 1.2-7.7.9-3.8-.5-2.1-3.9-2.4-6.6-.2-1.1 3.8-2 4-1 .2 1.7-.9 4 .1 5.4.6.8 2 .6 2.8.5.8-.1 2.2-.1 2.8-.8 1-1-.2-3.2-.2-4.4-.1-2.5 1.1-7.6-2.8-7.9-2.2-.2-6.7 1.2-7.9-1.8-.5-1.4-.2-2.8-.3-4.1 0-1.2-.4-2.4-.3-3.6.1-2.5 2.6-3.8 4.8-4.3 2.4-.6 11.1-1.5 9.9 3.1-.3 1-4.2 1.6-3.9.6.6-2.3-2.5-2.6-4.1-2.5l-1.1.1-.8.3c-.8.8-.9 1.8-.8 2.9l.3 4.1c0 1.1 0 3 1.4 3.4 2.7.8 6.5-1.2 8.7 1.6 1.9 2.6.5 5.9 1.2 8.9.3 1 .6 2.5-.4 3.4zm17 .8c-.6 1.5-4.6 1.7-3.8-.4.3-1 .2-2.5.2-3.5l-.2-3.5-.3-4.1c-2-.3-4.1-.1-6.1 0-.1 1.8-.3 3.6-.1 5.2.2 1.8.9 4 .4 5.8-.3 1-4.1 1.5-3.9.7.3-.9-.1-2.3-.2-3.3l-.3-3.3.3-6.4c.1-4.4-.7-8.9-.5-13.3.1-1.2 4-1.7 4-1.1-.2 4.6.6 9.2.4 13.8l5.9-.2v-.2c-.2-3.5-.8-7.1-.8-10.6 0-1.6 4-2.3 4-.3 0 3.8.6 7.5.7 11.3 0 2.5.4 4.9.6 7.3a14 14 0 01-.3 6.1zm1.3-33.9l.2-.9h.1l-.2.8-.1.1zm14.9 34c-.9-2.8-2.3-5.2-3.2-8-.5-1.6-1.2-3.1-2-4.5-1.2 2-2.5 3.9-4.1 5.6.1 2.1 0 4.1-.2 6.2-.1 1-2 1.4-2.7 1.4h-.1c-.6 0-1.6-.3-1.1-1.1l.2-5.2c-.3-.1-.4-.3-.1-.6v-.1c-.1-6.9-1.1-13.7-1.3-20.5 0-1.6 4-2.4 4-1.1.2 5.5.9 11.1 1.2 16.6l2.5-4.6c-.2-.5.1-1 .6-1.3l.2-.4 3-6c.8-1.7 1.7-3.1 3.2-4.2.7-.5 1.9-.8 2.8-.7.9.1.9.5.3 1-1.6 1.2-2.3 3.3-3.1 5l-3 5.8c1.2 2.7 2.7 5 3.6 7.8 1 2.7 2.4 5.2 3.3 7.9.5 1.6-3.5 2.7-4 1zm22.5-12.3l.1 5.7c.1 1.4.6 4-.4 5.1-.5.7-1.5 1-2.3 1.1-.1 0-2 .2-1.6-.3.9-1 .4-3.4.4-4.5l-.2-6.9c-1.1.1-2.2.4-3.3.3-1.4-.1-3.7-.7-5.1-.1l.1 2.5v8.3c0 1.1-4 1.7-4 1.1 0-3.5.1-7-.1-10.5-.2-3-1-6.2-.4-9.2a7 7 0 014.6-5.6 25 25 0 017.7-1.4c2.4-.1 3.8.8 4 3.3l.4 8v1c.9-.1 2.1 0 2.3.8.2.7-1.2 1.5-2.2 1.3z"/></symbol><symbol id="mishka-logo-mobile" viewBox="0 0 86 35"><path d="M4.55 26.32c0-3.5-.3-6.9-.4-10.4v-1c0 .1.1.2.1.4.5 1.4 1.1 2.7 1.8 3.9.7 1.2 1.1 2.6 1.5 3.9-.2.2-.3.4-.2.6 0 .2.1.2.2.3.5.5 1.5.2 2.1 0 .2-.1.5-.2.7-.4.3-.2.7-.6.6-1 0-.1 0-.2-.1-.2.4-1.1.6-2.2.8-3.3.2-1.2.7-2.3 1.1-3.5 0 .5.1 1 .1 1.6.2 2.1 0 4.3 0 6.4 0 .7 0 1.4.2 2.1.1.3.3 1.5.2 1.6-.5.5-.4 1.1.3 1.2.8.2 1.8-.1 2.3-.6 1-.9.5-2.4.3-3.6-.4-2 .1-4.2 0-6.2-.1-2.3-.4-4.5-.4-6.8 0-1.8.3-3.7-.3-5.5 0-.2.1-.4.1-.6.2-.9-2.8-.4-3.2.4-.3.2-.4.5-.3.8 0 .1.1.1.1.2-.6 2.7-1.3 5.3-2.2 7.9-.3 1-.7 2-1.1 3-.5-.9-1-1.9-1.4-2.8-1.2-2.9-2.2-5.8-3.6-8.6.2-1.3-2.7-1.2-3.3 0-.7 1.4-.6 2.9-.4 4.4.3 1.7.3 3.4.3 5.1 0 3.3.3 6.7.4 10-.3.3-.4.7-.1 1.2.1.2.3.3.5.5 1.2.7 3.3.2 3.3-1zm18.2-18.4c-.1-.6-3.4.1-3.3.9.3 1.8.2 3.6.1 5.4 0 1.7.4 3.3.6 5 .2 1.7-.1 3.5.1 5.2.1.8.6 2.3.1 3-.4.4 1.2.3 1.3.3.6-.1 1.5-.3 1.9-.9.6-.7.2-2 0-2.8-.3-1.7-.1-3.5-.2-5.3-.1-1.7-.6-3.3-.7-4.9.3-2 .4-3.9.1-5.9zm3.2 6.7c.9 2.5 4.6 1.3 6.6 1.5 3.2.2 2.3 4.6 2.3 6.6 0 1.1 1 2.9.2 3.8-.5.6-1.7.6-2.4.6-.7.1-1.9.3-2.3-.4-.8-1.2.1-3.2-.1-4.6-.1-.8-3.4-.1-3.3.9.3 2.2-1.2 5.2 2 5.6 2.1.2 4.4-.1 6.3-.8 1-.3 1.9-.8 2.7-1.5.9-.8.6-2 .4-3-.6-2.5.6-5.3-1-7.5-1.7-2.3-5-.7-7.2-1.3-1.2-.2-1.2-1.8-1.2-2.8 0-1.2-.1-2.3-.2-3.5-.1-.9 0-1.8.6-2.4.1-.1.7-.3.7-.3.3-.1.6-.1.9-.1 1.3-.1 3.9.2 3.4 2.1-.2.9 3 .4 3.3-.5 1-3.9-6.1-3.1-8.2-2.6-1.9.5-3.9 1.6-4 3.7-.1 1 .2 2 .3 3 0 1.2-.3 2.4.2 3.5zm14.4 1.9c-.1 1.8-.2 3.6-.2 5.4 0 .9.1 1.8.3 2.8.1.8.4 2 .2 2.8-.2.6 3 .2 3.3-.6.5-1.5-.2-3.4-.3-4.9-.1-1.5 0-2.9.1-4.4 1.7-.1 3.4-.2 5.1 0l.3 3.5c.1 1 .2 1.9.2 2.9 0 .9.1 2.1-.2 2.9-.7 1.7 2.7 1.6 3.1.3.6-1.6.4-3.5.3-5.2-.3-2.2-.6-4.2-.6-6.3-.1-3.2-.6-6.3-.6-9.5 0-1.7-3.3-1.1-3.3.3 0 3 .4 6 .6 9.1v.2c-1.6 0-3.3.1-4.9.2.2-3.9-.5-7.8-.4-11.7 0-.5-3.3-.1-3.3.9-.2 3.8.4 7.5.3 11.3zm14.1 5.3c-.3.3-.2.4 0 .5 0 1.5 0 2.9-.2 4.4-.4.6.4 1 .9 1h.1c.6 0 2.2-.3 2.3-1.1.2-1.8.2-3.5.2-5.3 1.3-1.4 2.4-3.1 3.4-4.7.6 1.2 1.2 2.5 1.7 3.9.7 2.3 1.9 4.4 2.6 6.8.5 1.5 3.8.6 3.3-.9-.7-2.3-1.9-4.5-2.6-6.8-.8-2.3-2-4.4-3-6.6.8-1.6 1.7-3.3 2.5-5 .7-1.5 1.2-3.2 2.6-4.3.5-.4.5-.8-.2-.8-.7-.1-1.7.2-2.3.6-1.3 1-2 2.2-2.7 3.6-.8 1.7-1.6 3.4-2.5 5.1-.1.1-.1.2-.2.4-.4.3-.7.6-.5 1.1-.7 1.3-1.3 2.6-2.1 3.9-.3-4.7-.8-9.3-1-14 0-1.1-3.3-.4-3.3.9.2 5.7 1 11.5 1 17.3zm31.5-6.2c-.2-.7-1.2-.7-1.9-.6v-.8c-.1-2.2-.1-4.5-.3-6.8-.2-2.1-1.3-2.8-3.3-2.7-2 .1-4.4.4-6.3 1.2a5.9 5.9 0 00-3.8 4.8c-.5 2.5.2 5.2.3 7.8.1 3 .1 5.9.1 8.9 0 .5 3.3 0 3.3-.9v-7c0-.7 0-1.4-.1-2.1 1.2-.5 3.1 0 4.3.1.9.1 1.8-.1 2.7-.2 0 1.9.1 3.9.2 5.9 0 1 .4 3-.3 3.8-.4.4 1.2.3 1.3.3.7-.1 1.5-.3 1.9-.9.8-.9.4-3.2.3-4.3-.1-1.6-.1-3.2-.1-4.8.8-.4 1.9-1 1.7-1.7zm-6.6-.2c-1.9 0-3.8-.3-5.7 0l-.3-3.2c-.1-2 .1-4.7 1.9-5.9.5-.3 1.4-.3 2-.4.8-.1 1.6-.3 2.4.2 1 .7.8 3.1.8 4.1 0 1.7.2 3.4.3 5.1-.5.1-1 .1-1.4.1zm-60.2-11.3c0 .2 0 .4.1.5v.4c.1.2.2.3.4.4.3.2.7.2 1.1.2.4 0 .9-.2 1.2-.4l.2-.2c.4-.3.8-.7.6-1.1-.4-.9-.4-1.9-.3-2.9 0-.8-.8-1.1-1.5-1-.6.1-1.8.5-1.8 1.3s-.1 1.7.1 2.5c-.1.1-.1.2-.1.3zm61.5 29.2c-1.6-.6-3.3-.6-4.9-.8l-4.9-.6c-1.6.1-3.3 0-5 .1l-4.9.3c-6.5.3-13 .3-19.5.1-6.5-.1-13-.5-19.6-.5-3.3 0-6.6.1-9.9.3-1.6.3-3.2.5-4.9.9-1.6.4-3.1.9-4.8 1 1.6.4 3.3.3 5 .3 1.6 0 3.2.1 4.9.2 3.2-.2 6.5-.2 9.7-.3 6.5 0 13 .3 19.6.5 6.5.1 13.1.2 19.7-.1l4.9-.3c1.6-.1 3.2-.1 4.8-.1 1.6-.1 3.3-.3 4.9-.5 1.7-.2 3.2-.6 4.9-.5h.1v-.6c0 .4 0 .5-.1.6z"/></symbol><symbol id="mishka-logo-tablet" viewBox="0 0 113 46"><path d="M97.8 10.9c-.8-.6-1.8-.4-2.7-.2-.6.1-1.6 0-2.2.4-2.1 1.3-2.4 4.4-2.2 6.6l.3 3.6c2-.4 4.2-.1 6.4 0l1.6-.1-.3-5.7c0-1.1.2-3.8-.9-4.6z"/><path d="M111 3.6C109-3 84.2 1.5 78.6 1.9c-12.8 1-25.3-1-37.8-.4-6.2.3-35.1-1.8-37.7 2-5 7.2-2.7 25.7-1.3 35-4 .8 2.3 4.2 3.1 4.9 6.3 2.2 16.5-.2 23.1.4 15.5 1.5 32-2.2 47.6-1 4.5 1.1 9.7 1 14.3 1.2 3.5 5.6 19.8-2.4 21-2.2 4.4.9.8-35.8.1-38.2zM25.7 35.1a3 3 0 01-2.6.7c-.8-.2-1-.9-.4-1.4l-.3-1.8-.2-2.3c0-2.4.2-4.8 0-7.2l-.1-1.8c-.5 1.3-.9 2.5-1.2 3.9a25 25 0 01-.9 3.7l.1.3c.1.5-.4.9-.7 1.1a3 3 0 01-.8.4c-.7.3-1.8.5-2.4 0-.1 0-.2-.1-.2-.3-.1-.3 0-.5.2-.7-.5-1.5-.9-3-1.7-4.4-.9-1.4-1.5-2.9-2.1-4.4l-.2-.4v1.1c.1 3.9.4 7.8.4 11.7 0 1.3-2.4 1.9-3.3 1.2-.3-.1-.4-.3-.6-.5-.3-.5-.2-.9.1-1.3-.1-3.8-.4-7.5-.4-11.3-.1-2-.1-3.9-.4-5.8-.3-1.7-.4-3.3.4-4.9.7-1.3 3.9-1.5 3.7 0 1.6 3.1 2.8 6.4 4.1 9.7l1.6 3.2 1.2-3.4c1-2.9 1.9-5.9 2.5-8.9l-.1-.2c-.1-.3.1-.6.4-.9.5-.9 3.8-1.4 3.6-.4l-.1.7c.7 2 .3 4.1.3 6.2 0 2.5.4 5.1.5 7.6.1 2.3-.5 4.8-.2 6.8.4 1.3.9 3-.2 4zm3.4-25.6v-.4c-.1-.2-.2-.3-.1-.5l.1-.3c-.2-.9-.1-1.9-.1-2.8 0-.8 1.4-1.3 2.1-1.4.8-.1 1.7.2 1.7 1.1 0 1.1-.1 2.2.4 3.2.2.5-.2 1-.7 1.3l-.2.2c-.4.3-.9.5-1.4.5-.4 0-.9 0-1.4-.3a2 2 0 01-.4-.6zm5.3 24.6c-.5.6-1.5.9-2.2 1-.1 0-1.9.2-1.5-.3.6-.8 0-2.5-.1-3.4-.2-2 .2-3.9-.1-5.9-.3-1.9-.7-3.7-.7-5.6 0-2 .1-4-.2-6-.1-.9 3.6-1.7 3.7-1 .3 2.1.1 4.3.1 6.5 0 1.9.6 3.7.7 5.6.1 1.9-.1 4 .4 5.9.1.9.6 2.4-.1 3.2zm16.2-.3c-.9.8-2 1.3-3.1 1.7-2.2.7-4.8 1.2-7.1.9-3.6-.5-2-3.8-2.3-6.3-.2-1.1 3.6-1.9 3.7-1 .2 1.5-.8 3.8.1 5.1.5.7 1.8.5 2.6.4.7 0 2-.1 2.6-.7.9-1-.2-3.1-.2-4.3 0-2.3 1-7.2-2.6-7.5-2.2-.2-6.4 1.1-7.4-1.7-.5-1.3-.2-2.6-.3-3.9 0-1.1-.4-2.2-.3-3.4.1-2.4 2.4-3.6 4.5-4.2 2.3-.6 10.5-1.5 9.2 2.9-.3 1-4 1.6-3.7.6.6-2.2-2.3-2.5-3.8-2.4a3 3 0 00-1 .1l-.8.3c-.7.8-.8 1.8-.7 2.8.2 1.3.3 2.5.3 3.9 0 1 0 2.8 1.3 3.2 2.5.8 6.1-1.1 8.1 1.5 1.8 2.4.5 5.6 1.3 8.6.3 1.2.6 2.5-.4 3.4zm15.8.5c-.5 1.5-4.2 1.7-3.5-.3.3-.9.2-2.3.2-3.3l-.2-3.3-.3-3.9c-1.9-.3-3.9-.1-5.8 0-.1 1.7-.3 3.4-.1 5 .2 1.7.9 3.8.4 5.5-.3 1-3.9 1.4-3.7.7.3-.9-.1-2.2-.2-3.1l-.3-3.1.2-6.1c.2-4.2-.6-8.5-.4-12.7 0-1.1 3.7-1.6 3.7-1-.2 4.3.6 8.7.4 13.1l5.6-.2v-.2c-.1-3.4-.6-6.8-.6-10.2 0-1.5 3.8-2.2 3.8-.3 0 3.6.6 7.1.7 10.7 0 2.3.4 4.7.5 6.9.1 1.8.3 4-.4 5.8zm15.4.2c-.8-2.6-2.2-5-3-7.6-.5-1.5-1.2-2.9-1.9-4.3a28.5 28.5 0 01-3.8 5.3c0 2 0 4-.2 6-.1 1-1.9 1.3-2.6 1.3h-.1c-.6 0-1.4-.4-1-1.1l.2-5c-.3-.1-.4-.3-.1-.6 0-6.5-1-13-1.2-19.5-.1-1.5 3.7-2.2 3.7-1 .2 5.3.8 10.5 1.1 15.8.9-1.4 1.6-2.9 2.4-4.4-.1-.5.1-.9.6-1.2l.2-.4 2.8-5.8c.7-1.7 1.6-3 3-4.1a4 4 0 012.6-.7c.7.1.7.5.2.9-1.5 1.2-2.1 3.1-2.9 4.8L79 18.5c1.1 2.5 2.5 4.8 3.4 7.4.9 2.6 2.2 5 3.1 7.6.5 1.7-3.2 2.7-3.7 1zm21.1-11.4l.1 5.4c0 1.3.5 3.8-.4 4.9-.5.6-1.4.9-2.2 1-.1 0-1.9.2-1.5-.3.8-.9.3-3.2.3-4.3l-.2-6.6c-1 .1-2 .4-3.1.3-1.3-.1-3.5-.7-4.8-.1l.1 2.3v7.9c0 1-3.7 1.5-3.7 1l-.1-10c-.2-2.9-.9-5.9-.4-8.8a6.5 6.5 0 014.3-5.4c2.1-.8 4.8-1.2 7.1-1.3 2.3-.1 3.6.8 3.8 3.1l.4 7.6v1c.9-.1 2-.1 2.2.7.2.8-1 1.5-1.9 1.6z"/></symbol><symbol id="phone" viewBox="0 0 25 24"><path d="M17.44 24h-1.1a17.63 17.63 0 01-11.2-5.73A18.8 18.8 0 010 6.72V5.33c.1-.89.5-1.48 1.1-2.07.61-.7 1.62-1.48 2.53-1.58.7 0 1.81.5 2.22 1.09.4.49.6 1.58.8 2.37.2.88.6 1.97.5 2.76-.2 1.19-1.8 1.68-2.21 2.57a16.4 16.4 0 007.56 8.2c.8-.5 1.61-1.88 2.82-1.88.4 0 1.01.2 1.41.3.5.1.91.3 1.31.49.71.3 2.02.6 2.42 1.19.4.59.7 1.58.6 2.17-.3 1.28-2.41 2.66-3.62 3.06zM12.6 1.48a10.8 10.8 0 0110.9 10.67H25C25 5.43 19.46 0 12.6 0v1.48z"/><path d="M12.6 9.19v1.58c.8 0 1.41.59 1.41 1.38h1.62a3 3 0 00-3.03-2.96zm0-3.07a6.11 6.11 0 016.15 6.03h1.61c0-4.15-3.42-7.5-7.66-7.5v1.47h-.1z"/></symbol><symbol id="play-button" viewBox="0 0 89.9 65.8"><path d="M88.9 12.9c-.3-2.4-1.4-6.8-3.1-8.5-2.6-2.9-5.4-3.1-7.2-3.3L78 1C64.9 0 45.2 0 45 0h-.1c-.2 0-20 0-33 1l-.6.1c-1.9.2-4.7.5-7.3 3.3A20 20 0 00.9 13c-.1.6-.9 8.4-.9 16.1v7.7c0 7.7.9 15.6.9 16.1.3 2.4 1.4 6.8 3.1 8.5 2.3 2.6 5.3 3 7.5 3.3.6-.1 1 0 1.5.1 7.5.7 31.2 1 32 1 .7 0 20.1 0 33-1l.6-.1c1.8-.2 4.6-.5 7.2-3.3a20 20 0 003.1-8.6c.1-.5.9-8.4.9-16.1V29c.1-7.8-.8-15.6-.9-16.1zM33 50.6V14.9l29.8 17.9L33 50.6z"/></symbol><symbol id="play" viewBox="0 0 102 78"><path d="M98.25 18.34s-.91-7.1-3.85-10.24c-3.65-4.05-7.81-4.15-9.64-4.35C71.28 2.74 51 2.74 51 2.74h-.1s-20.28 0-33.76 1c-1.93.21-5.99.31-9.64 4.36-2.84 3.14-3.85 10.24-3.85 10.24s-.91 8.3-.91 16.6v7.81c0 8.3.91 16.61.91 16.61s.91 7.1 3.85 10.23c3.65 4.06 8.52 3.96 10.65 4.36 7.7.81 32.85 1.01 32.85 1.01s20.28 0 33.76-1c1.93-.21 5.99-.31 9.64-4.37 2.83-3.14 3.85-10.23 3.85-10.23s.91-8.3.91-16.61v-7.8c0-8.3-.91-16.61-.91-16.61z" fill="#63D1BB"/><path d="M50.9 77.8c-1.02 0-25.35-.3-33.06-1.01h-.2c-.3-.1-.7-.1-1.11-.2-2.54-.3-7.3-.92-10.95-5.07C2.13 67.87 1.12 60.58 1 59.77c0-.3-1.01-8.61-1.01-16.92v-7.8c0-8.4.91-16.61.91-16.92v-.1c.1-.8 1.22-8 4.57-11.75a15.63 15.63 0 0110.84-5.17c.2 0 .41 0 .51-.1h.1C30.42 0 50.7 0 50.9 0h.1c.2 0 20.48 0 33.97 1.01h.1c.2 0 .3 0 .5.1 2.24.2 6.8.71 10.85 5.17 3.45 3.65 4.47 10.94 4.57 11.75 0 .3 1.01 8.61 1.01 17.02v7.8c0 8.4-.91 16.61-1.01 16.92v.1c-.1.81-1.22 8.1-4.57 11.75a15.63 15.63 0 01-10.85 5.17c-.2 0-.4 0-.5.1h-.1c-13.49.91-33.87.91-34.07.91zm-32.35-6.48c7.6.7 31.64 1.01 32.45 1.01.71 0 20.38 0 33.46-1.01.2 0 .4 0 .6-.1 1.83-.2 4.67-.51 7.3-3.35 1.83-2.02 2.95-6.99 3.15-8.71.1-.5.91-8.5.91-16.3v-7.81c0-7.9-.9-15.8-1.01-16.3-.3-2.44-1.42-6.9-3.14-8.62-2.64-2.94-5.48-3.14-7.3-3.34-.2 0-.4 0-.61-.1C71.08 5.67 51.1 5.67 50.9 5.67h-.1c-.2 0-20.28 0-33.46 1.02-.2 0-.4 0-.61.1-1.83.2-4.66.5-7.3 3.34-1.83 2.03-2.94 6.99-3.14 8.71-.1.61-.92 8.51-.92 16.31v7.8c0 7.8.92 15.8.92 16.31.3 2.43 1.42 6.89 3.14 8.61 2.33 2.64 5.37 3.04 7.6 3.35.61-.1 1.02 0 1.52.1z" fill="#fff"/><path d="M38.83 20.77v36.16L69.05 38.9 38.83 20.77z" fill="#fff"/></symbol><symbol id="radio-center" viewBox="0 0 21 21"><path fill-rule="evenodd" clip-rule="evenodd" d="M10.24.4a9.82 9.82 0 110 19.64 9.82 9.82 0 010-19.65z"/></symbol><symbol id="twitter" viewBox="0 0 25 20"><path d="M24.23 4.3c-.2-.4-.9-.3-1.4-.4h-1.1c.1-.4.3-.6.5-1 .1-.4.3-.7.2-1.3l.3-.6c.1-.1.2-.5.1-.7-.1-.2-.3-.2-.6-.2-.1 0-.2.1-.2.1-.4.4-.8 1-1.3 1.4h-.1c-.1 0 0 0-.1.1s-.3.2-.4.2c-.3.2-.5.4-.9.5-.5-.2-1.2-.3-1.9-.4-1.2.1-2.3.2-3 .7-.9.3-1.5 1-2.1 1.6 0 .3-.3.4-.4.7 0 0 0 .1-.1.1 0 .2-.1.3-.1.5 0 .1.2.4 0 .5-.8-.1-1.5-.6-2.1-1-.7-.4-1.5-.6-2.1-1.1-.7-.3-1.3-.8-1.8-1.3-.2-.3-.5-.5-.7-.9-.4-.2-.2-.9-.7-.9-.3 0-.3.2-.4.4-.1.2-.4.2-.4.5 0 0 0 .1-.1.1-.2 1.1-.5 2-.5 3.3.1.4.3.7.6 1-.4.1-.7.2-.9.5-.1 1.1.4 1.6.7 2.3.1.4.4.7.6 1 0 .2.2.3.3.4 0 .1.1.1.1.2s.3.2.1.2c-.4.1-1 .1-1.3.4-.1.3-.1.8 0 1.1 0 .2.3.3.3.5.5.4 1.1.7 1.6 1.1.6.2 1.2.3 1.9.4-.1.3-.3.6-.6.7-.8.4-1.8.5-2.7.7-.6 0-1 .2-1.6.2-.3.1-.9.1-1.1.2l-.2.2c-.1.4.1.7.4.9 0 .3.2.3.4.4.1.2.3.3.4.4.5.5 1.3.8 1.9 1.1.8.2 1.6.4 2.5.5.9.1 1.9.1 2.8.2h1c.5.1 1.2.1 1.9.1.1-.1.3-.1.5-.1.5-.3 1.2-.4 1.6-.7.6-.2 1-.6 1.6-.9.9-.8 1.9-1.3 2.5-2.4.2-.2.4-.4.4-.7.3-.2.4-.5.6-.7.4-.4.7-.9 1-1.4.3-.5.6-1.1.9-1.6 0-.4.3-.5.3-.9.2-.2.2-.7.4-.9 0-.3 0-.4.1-.6 0-1.3 0-2.4-.3-3.4.6-.2 1.2-.3 1.6-.6.8.3 1.3-.1 1.1-.7zm-3.4 4c-.2.9-.6 1.4-1 2 .1.4-.1.5-.1.9-.2.3-.3.7-.4 1-.2.3-.3.6-.5.9-.4.5-.8 1.1-1.2 1.6-.4.6-.9 1-1.3 1.5s-.9.9-1.4 1.3c-.5.2-.9.4-1.3.7-.2.1-.5.2-.7.3-.2.1-.5.1-.7.3-1.1.1-2.3.2-3.6.1-1-.1-2.1-.2-3-.4-.9-.2-1.5-.7-2.3-1 .2-.2.6-.2 1-.2 0-.2.4 0 .4-.1.3.1.3-.1.5-.1.6-.2 1.2-.3 1.7-.6.3-.1.4-.4.7-.6 0-.2.1-.3.2-.4 0-.3.2-.4.1-.8.1-.2.3-.3.3-.7-.1-.1-.1-.3-.3-.4 0-.2-.4-.1-.4-.2-.3 0-.4 0-.6-.1-.2 0-.5.1-.5-.1-.8 0-1.3-.4-1.9-.7.4-.3 1-.4 1.3-.7.5-.1 1.1-.1 1.1-.7 0-.7-.8-.7-1.3-.8-.8-.7-1.2-1.7-1.8-2.5.2-.2.6-.2.7-.4.5.1.5-.3.7-.5 0-.5-.3-.6-.6-.8-.3-.2-.5-.5-.7-.7 0-.8 0-1.7.1-2.4.1 0 .1 0 .1.1.2.4.6.8.8 1.2.5.4.9.9 1.6 1.1.5.4 1.1.6 1.6 1 .6.3 1.2.6 1.7.9.7.2 1.1.7 2 .6l.6-.3c.3-.5-.1-1.1.1-1.6.3-.7.8-1 1.3-1.5.3-.2.6-.3.8-.5.3-.1.7-.2 1-.4.4 0 .7-.1 1-.1h1.3c.2.1.5.1.7.1.2.1.4.3.7.4.8.7 1.3 1.7 1.4 3 0 .3.1.7.1 1.3zm.3-5.6c-.1.3-.2.7-.6.8 0-.1-.1-.1-.1-.2 0-.2.2-.2.3-.3.1-.1.2-.3.4-.3.1 0 0-.1 0 0zm-5.5 3c.2.1.3.3.5.4.1.2.3.3.6.4 0-.2.3 0 .4-.2.2 0 .2-.2.3-.3 0-.5-.1-1-.4-1.3-.7-.5-1.7 0-1.4 1z"/></symbol><symbol id="video" viewBox="0 0 32 22"><path d="M26 10l6-4v16l-6-4v-8zm-2 0v8c0 2.2-1.8 4-4 4H4c-2.2 0-4-1.8-4-4v-8c0-2.2 1.8-4 4-4h10c0-1.1.9-2 2-2V2H5c-.6 0-1-.4-1-1s.4-1 1-1h12c.6 0 1 .4 1 1v3a2 2 0 012 2c2.2 0 4 1.8 4 4zm-12 0H4v8h8v-8zm8 1c0-.6-.4-1-1-1h-4c-.6 0-1 .4-1 1s.4 1 1 1h4c.6 0 1-.4 1-1z"/></symbol><symbol id="zigzag-fill" viewBox="0 0 1150 34"><path d="M1121.2 0c-14.4 0-14.4 14-28.8 14S1078 0 1063.6 0s-14.4 14-28.7 14c-14.4 0-14.4-14-28.8-14s-14.4 14-28.8 14-14.2-14-28.5-14-14.4 14-28.8 14-14.4-14-28.7-14-14.4 14-28.8 14-14.4-14-28.7-14c-14.4 0-14.4 14-28.7 14S790.7 0 776.3 0s-14.4 14-28.7 14c-14.4 0-14.4-14-28.8-14S704.4 14 690 14 675.6 0 661.3 0c-14.4 0-14.4 14-28.8 14S618.1 0 603.7 0s-14.4 14-28.8 14-14.2-14-28.6-14-14.4 14-28.8 14-14.4-14-28.7-14c-14.4 0-14.4 14-28.8 14S445.6 0 431.2 0s-14.4 14-28.8 14S388 0 373.6 0s-14.4 14-28.8 14-14.1-14-28.5-14-14.4 14-28.8 14-14.3-14-28.7-14c-14.4 0-14.4 14-28.8 14S215.7 0 201.3 0c-14.4 0-14.4 14-28.8 14S158.2 0 143.8 0c-14.4 0-14.4 14-28.8 14S100.7 0 86.3 0 71.9 14 57.5 14 43.1 0 28.8 0 14.4 14 0 14v20h1150V14c-14.4 0-14.4-14-28.8-14z"/></symbol><symbol id="zigzag-line" viewBox="0 0 320 6"><path d="M320 6c-2.5 0-3.81-1.2-4.87-2.17-.95-.86-1.64-1.48-3.12-1.48-1.5 0-2.17.62-3.11 1.48-1.06.97-2.37 2.17-4.87 2.17s-3.81-1.2-4.87-2.17c-.95-.86-1.64-1.48-3.12-1.48-1.47 0-2.17.62-3.12 1.48-1.05.97-2.36 2.17-4.86 2.17-2.5 0-3.82-1.2-4.87-2.17-.95-.86-1.65-1.48-3.12-1.48-1.5 0-2.17.62-3.12 1.48C275.9 4.8 274.6 6 272.08 6c-2.5 0-3.8-1.2-4.87-2.17-.94-.86-1.64-1.48-3.11-1.48-1.5 0-2.17.62-3.12 1.48C259.81 4.8 258.5 6 256 6c-2.5 0-3.81-1.2-4.87-2.17-.95-.86-1.64-1.48-3.12-1.48-1.5 0-2.17.62-3.11 1.48-1.06.97-2.37 2.17-4.87 2.17s-3.81-1.2-4.87-2.17c-.95-.86-1.64-1.48-3.12-1.48-1.5 0-2.17.62-3.11 1.48C227.8 4.8 226.5 6 224 6c-2.5 0-3.81-1.2-4.87-2.17-.95-.86-1.64-1.48-3.12-1.48-1.5 0-2.17.62-3.11 1.48-1.06.97-2.37 2.17-4.87 2.17s-3.81-1.2-4.87-2.17c-.95-.86-1.64-1.48-3.12-1.48-1.47 0-2.17.62-3.11 1.48C195.84 4.8 194.5 6 192 6c-2.5 0-3.81-1.2-4.87-2.17-.95-.86-1.64-1.48-3.12-1.48-1.5 0-2.17.62-3.11 1.48-1.06.97-2.37 2.17-4.87 2.17s-3.81-1.2-4.87-2.17c-.95-.86-1.64-1.48-3.12-1.48-1.5 0-2.17.62-3.11 1.48-1.06.97-2.37 2.17-4.87 2.17s-3.82-1.2-4.87-2.17c-.95-.86-1.65-1.48-3.12-1.48-1.47 0-2.17.62-3.12 1.48C147.9 4.8 146.6 6 144.08 6c-2.5 0-3.8-1.2-4.87-2.17-.94-.86-1.64-1.48-3.11-1.48-1.5 0-2.17.62-3.12 1.48-1.06.97-2.36 2.17-4.87 2.17-2.5 0-3.81-1.2-4.87-2.17-.94-.86-1.64-1.48-3.11-1.48-1.5 0-2.17.62-3.12 1.48-1.06.97-2.37 2.17-4.87 2.17s-3.81-1.2-4.87-2.17c-.95-.86-1.64-1.48-3.12-1.48-1.5 0-2.17.62-3.11 1.48C99.98 4.8 98.67 6 96.17 6s-3.82-1.2-4.87-2.17c-.95-.86-1.64-1.48-3.12-1.48-1.47 0-2.17.62-3.12 1.48C84.01 4.8 82.7 6 80.2 6c-2.5 0-3.8-1.2-4.86-2.17-.95-.86-1.65-1.48-3.12-1.48-1.5 0-2.17.62-3.12 1.48C68.03 4.8 66.73 6 64.22 6c-2.5 0-3.81-1.2-4.87-2.17-.94-.86-1.64-1.48-3.11-1.48-1.5 0-2.17.62-3.12 1.48C52.06 4.8 50.75 6 48.25 6s-3.81-1.2-4.87-2.17c-.95-.86-1.64-1.48-3.12-1.48-1.5 0-2.17.62-3.11 1.48C35.84 4.8 34.5 6 32 6c-2.5 0-3.81-1.2-4.87-2.17-.95-.86-1.64-1.48-3.12-1.48-1.5 0-2.17.62-3.11 1.48C19.84 4.8 18.53 6 16.03 6s-3.81-1.2-4.87-2.17C10.18 2.97 9.49 2.35 8 2.35c-1.5 0-2.17.62-3.11 1.48C3.8 4.8 2.5 6 0 6V3.65c1.5 0 2.17-.62 3.12-1.48C4.17 1.2 5.48 0 8.02 0c2.5 0 3.8 1.2 4.86 2.17.95.86 1.65 1.48 3.12 1.48 1.5 0 2.17-.62 3.12-1.48C20.17 1.2 21.5 0 24.02 0c2.5 0 3.8 1.2 4.86 2.17.95.86 1.65 1.48 3.12 1.48 1.5 0 2.17-.62 3.12-1.48C36.17 1.2 37.48 0 39.99 0c2.5 0 3.8 1.2 4.87 2.17.94.86 1.64 1.48 3.11 1.48 1.5 0 2.17-.62 3.12-1.48C52.15 1.2 53.45 0 55.96 0c2.5 0 3.81 1.2 4.87 2.17.94.86 1.64 1.48 3.11 1.48 1.5 0 2.17-.62 3.12-1.48C68.12 1.2 69.43 0 71.93 0s3.81 1.2 4.87 2.17c.95.86 1.64 1.48 3.12 1.48 1.5 0 2.17-.62 3.11-1.48C84.1 1.2 85.4 0 87.9 0s3.81 1.2 4.87 2.17c.95.86 1.64 1.48 3.12 1.48 1.5 0 2.17-.62 3.12-1.48 1.05-.97 2.36-2.17 4.86-2.17 2.5 0 3.82 1.2 4.87 2.17.95.86 1.65 1.48 3.12 1.48 1.48 0 2.17-.62 3.12-1.48 1.05-.97 2.36-2.17 4.87-2.17 2.5 0 3.8 1.2 4.87 2.17.94.86 1.64 1.48 3.11 1.48 1.5 0 2.17-.62 3.12-1.48 1.06-.97 2.37-2.17 4.87-2.17s3.81 1.2 4.87 2.17c.94.86 1.64 1.48 3.12 1.48 1.5 0 2.17-.62 3.11-1.48C147.98 1.2 149.3 0 151.8 0s3.81 1.2 4.87 2.17c.95.86 1.64 1.48 3.12 1.48 1.5 0 2.17-.62 3.11-1.48 1.06-.97 2.37-2.17 4.87-2.17s3.82 1.2 4.87 2.17c.95.86 1.65 1.48 3.12 1.48 1.5 0 2.17-.62 3.12-1.48 1.05-.97 2.36-2.17 4.87-2.17 2.5 0 3.8 1.2 4.86 2.17.95.86 1.65 1.48 3.12 1.48 1.5 0 2.17-.62 3.12-1.48C195.9 1.2 197.2 0 199.7 0c2.5 0 3.81 1.2 4.87 2.17.94.86 1.64 1.48 3.11 1.48 1.5 0 2.17-.62 3.12-1.48 1.06-.97 2.37-2.17 4.87-2.17s3.81 1.2 4.87 2.17c.95.86 1.64 1.48 3.12 1.48 1.5 0 2.17-.62 3.11-1.48C228.17 1.2 229.47 0 232 0c2.5 0 3.82 1.2 4.87 2.17.95.86 1.65 1.48 3.12 1.48 1.47 0 2.17-.62 3.12-1.48 1.05-.97 2.36-2.17 4.87-2.17 2.5 0 3.8 1.2 4.87 2.17.94.86 1.64 1.48 3.11 1.48 1.48 0 2.17-.62 3.12-1.48C260.17 1.2 261.49 0 264 0c2.54 0 3.82 1.2 4.87 2.17.95.86 1.64 1.48 3.12 1.48 1.48 0 2.17-.62 3.12-1.48 1.05-.97 2.36-2.17 4.87-2.17 2.5 0 3.8 1.2 4.87 2.17.94.86 1.64 1.48 3.11 1.48 1.5 0 2.17-.62 3.12-1.48 1.06-.97 2.36-2.17 4.87-2.17 2.5 0 3.81 1.2 4.87 2.17.94.86 1.64 1.48 3.11 1.48 1.48 0 2.18-.62 3.12-1.48 1.06-.97 2.37-2.17 4.87-2.17s3.81 1.2 4.87 2.17c.95.86 1.64 1.48 3.12 1.48V6h.08z"/></symbol></svg>