<svg width="16" height="30" viewBox="0 0 16 30" xmlns="http://www.w3.org/2000/svg"><path d="M12.3 5.94c1 0 2 0 2.7-.31.4-.83.6-1.98.6-3.12-.2 0-.1-.32-.2-.42 0-.21-.3-.21-.3-.42-.3-.2-.5-.41-.7-.62-.7-.21-1.4-.32-2.2-.52-.8 0-1.9-.1-2.6.1-2.6 0-3.99 1.15-5.29 2.5 0 .1 0 .2-.1.2-.6 1.68-.1 3.76-.2 5.84.1.42.1 1.04.2 1.46-1 .31-2.2.42-3.4.52-.3.31-.2 1.15-.2 1.77.1.63.3 1.15.4 1.67.2.2.6.41.8.52.1 0 .1.1.1.1.5.32 1.5 0 2.3.1-.1 2.09.3 4.07 0 5.94 0 .32.3.42.2.84 0 1.04-.1 2.08.2 2.81-.3.52-.5 1.04-.4 1.88.1 0 .1.2.1.3-.1.53.6.22.5.74.2.52-.4.2-.4.52v.93c.5.32 1.5.21 2.3.21.9-.41 2.2-.52 2.8-1.25.5.21.9 0 1.2-.2 0-.32.3-.32.2-.73 0-.32-.2-.52-.1-.94v-3.02c-.2-2.4 0-5.1-.3-7.5.9-.1 1.9-.1 2.6-.42.4-.52.4-1.25.5-1.98.2-.2.2-.62.2-1.04.2-.2.1-.73.1-1.15-.1-.62-.2-1.35-.8-1.45-.9-.21-2 .62-3 .3 0-1.14-.3-2.39 0-3.53.8-.21 1.5-.42 2.2-.63zm-3.8 5c.1.31.3.52.4.73.1 0 .2 0 .2.1 1.2.11 2.2-.1 3.1-.3 0 1.03-.3 1.76-.5 2.6-.7 0-1.5.31-2 .2-.3.21-.4.53-.6.73 0 .42.1.53 0 .84-.2.1-.1.62-.2.83v1.56c.1.32-.1.32-.1.52v3.65c-.1.31.1.31.1.52v3.13c.1.3-.1.83.1.93-.1.42-.4 0-.8.1-.5.11-.9.42-1.5.42.1-.41.3-.62.3-1.14 0-.42-.4-.31-.5-.52.2-.63.6-1.15.7-1.88.2-.52.7-1.35.3-1.87-.5-.1-.5.31-.8.41 0 .1 0 .21-.1.21 0 .1 0 .21-.1.21 0 .1-.2.1 0 0 0-.1 0-.2.1-.2 0-.11 0-.22.1-.22v-.3c.4-.63.7-1.26.8-2.1.2-.3.3-.72.4-1.03.2-.32.3-.94.1-1.25-.5 0-.8.31-.9.73-.3-.21.2-.42.1-.73.1-.21.2-.63.3-.84.2-.41.6-1.35 0-1.66-.4 0-.6.2-.7.52-.2.2-.4.41-.5.73-.4-.1-.1-.73-.2-1.15-.1-.52.1-.94 0-1.25-.59-.83-1.99-.1-3.19-.31-.1-.31-.2-1.04-.1-1.25 1-.1 2.5.2 3.2-.2 0-.11 0-.22.1-.22.1-.73-.3-1.04-.5-1.46.2-.83 0-2.08.1-3.12.2-.1.3-.42.5-.63.1-1.04.7-1.56.7-2.6-.3 0-.6-.1-.6.2-.3-.1-.4.53-.5.22-.1-.52.2-.63.3-1.04.6-.42 1.2-.84 1.9-1.25 1.7-.21 4.6-.42 6.1.2.1.63-.3.94-.2 1.57h-1.5c-1.1.2-2 .73-3 1.04-.2.1-.3.31-.5.41 0 .42-.2.63-.3 1.05-.3 1.45-.1 2.7-.1 4.16z"/></svg>