<svg width="33" height="38" viewBox="0 0 33 38" xmlns="http://www.w3.org/2000/svg"><path d="M16.5 38C25.57 38 33 30.65 33 21.66A16.4 16.4 0 0016.5 38zM4.74 16.65a4.5 4.5 0 007.12 3.68v.3c0 2.56 2.06 4.5 4.54 4.5a4.49 4.49 0 004.53-4.5v-.3c.73.5 1.65.82 2.58.82a4.49 4.49 0 004.54-4.5 4.43 4.43 0 00-2.58-4.09 4.43 4.43 0 002.58-4.08 4.54 4.54 0 00-7.12-3.68v-.3c0-2.56-2.06-4.5-4.53-4.5a4.49 4.49 0 00-4.54 4.5v.3a4.54 4.54 0 00-2.58-.82 4.49 4.49 0 00-4.54 4.5 4.43 4.43 0 002.58 4.08 4.61 4.61 0 00-2.58 4.1zM16.5 7.97a4.49 4.49 0 110 8.99 4.49 4.49 0 110-9zM0 21.66C0 30.65 7.42 38 16.5 38A16.4 16.4 0 000 21.66z"/></svg>