<svg width="27" height="34" viewBox="0 0 27 34" xmlns="http://www.w3.org/2000/svg"><path d="M13.65 0h-.1L0 1.4v24.62L13.55 34 27 26.02V1.4L13.65 0zM25.1 12.06L13.55 5.28v-.1h-.1l-.1-.1v.1L1.9 12.06V3.1l11.54-1.2 11.64 1.2v8.97zM13.45 6.78l11.54 6.68-4.51 2.6-7.13-4.2v1.4l5.92 3.5-.9.49-5.02-3v1.4l3.81 2.3-.8.5-3.01-1.8v1.4l1.9 1.1-1.8 1.1-11.44-6.69 11.44-6.78zM1.91 15.06l11.44 6.78v1l-7.93-4.7v1.4l8.03 4.79v1.1l-8.03-4.7v1.4l8.03 4.8 8.13-4.9v-5.18l3.41-2v9.98L13.45 31.7 1.91 24.93v-9.87z"/></svg>