<svg width="41" height="62" viewBox="0 0 41 62" xmlns="http://www.w3.org/2000/svg"><path d="M15.5 37.66c-.3.99-.2 2.18 0 3.57.51 2.59 1.74 5.96 2.45 9.64h5.2c.72-3.58 1.94-6.95 2.55-9.64.3-1.39.3-2.68 0-3.57-.3-.9-.92-1.6-2.04-2.29h-6.12c-1.22.7-1.83 1.4-2.04 2.29zm12.04 19.87H13.46c-1.32 0-2.34 1-2.34 2.18v2.19h18.76v-2.19c0-1.19-1.02-2.18-2.34-2.18zm7.24-55.34H22.85C22.85.99 21.83 0 20.5 0s-2.35 1-2.35 2.19H6.22L0 27.52c.82-.5 1.63-1 2.65-1 1.43 0 2.25.8 2.96 1.4.71.6 1.22.8 1.43.8.3 0 .81-.3 1.53-.8.71-.5 1.63-1.4 2.95-1.4 1.33 0 2.25.8 2.96 1.4.72.5 1.23.8 1.53.8.1 0 .3-.1.61-.2.2-.1.51-.4.92-.6.51-.4 1.12-1 2.04-1.2.3-.1.61-.1.92-.1 1.33 0 2.24.8 2.96 1.4.71.5 1.22.8 1.53.8.3 0 .81-.3 1.43-.8.7-.6 1.63-1.4 2.95-1.4 1.43 0 2.25.8 2.96 1.4.3.3.61.5.92.6.2.1.4.2.61.2.3 0 .82-.3 1.43-.9.71-.6 1.63-1.4 2.96-1.4 1.02 0 1.83.5 2.65 1L34.78 2.2zM23.97 53.06h-7.04c-.71 0-1.12.5-1.12 1.09 0 .6.5 1.1 1.12 1.1h7.04c.71 0 1.12-.5 1.12-1.1.1-.6-.4-1.1-1.12-1.1z"/><path d="M20.5 28.71c-.1 0-.3.1-.61.2-.2.1-.41.3-.61.4v3.68h2.34V29.4c-.5-.4-.92-.7-1.12-.7z"/></svg>