<svg width="320" height="6" viewBox="0 0 320 6" xmlns="http://www.w3.org/2000/svg"><path d="M320 6c-2.5 0-3.81-1.2-4.87-2.17-.95-.86-1.64-1.48-3.12-1.48-1.5 0-2.17.62-3.11 1.48-1.06.97-2.37 2.17-4.87 2.17s-3.81-1.2-4.87-2.17c-.95-.86-1.64-1.48-3.12-1.48-1.47 0-2.17.62-3.12 1.48-1.05.97-2.36 2.17-4.86 2.17-2.5 0-3.82-1.2-4.87-2.17-.95-.86-1.65-1.48-3.12-1.48-1.5 0-2.17.62-3.12 1.48C275.9 4.8 274.6 6 272.08 6c-2.5 0-3.8-1.2-4.87-2.17-.94-.86-1.64-1.48-3.11-1.48-1.5 0-2.17.62-3.12 1.48C259.81 4.8 258.5 6 256 6c-2.5 0-3.81-1.2-4.87-2.17-.95-.86-1.64-1.48-3.12-1.48-1.5 0-2.17.62-3.11 1.48-1.06.97-2.37 2.17-4.87 2.17s-3.81-1.2-4.87-2.17c-.95-.86-1.64-1.48-3.12-1.48-1.5 0-2.17.62-3.11 1.48C227.8 4.8 226.5 6 224 6c-2.5 0-3.81-1.2-4.87-2.17-.95-.86-1.64-1.48-3.12-1.48-1.5 0-2.17.62-3.11 1.48-1.06.97-2.37 2.17-4.87 2.17s-3.81-1.2-4.87-2.17c-.95-.86-1.64-1.48-3.12-1.48-1.47 0-2.17.62-3.11 1.48C195.84 4.8 194.5 6 192 6c-2.5 0-3.81-1.2-4.87-2.17-.95-.86-1.64-1.48-3.12-1.48-1.5 0-2.17.62-3.11 1.48-1.06.97-2.37 2.17-4.87 2.17s-3.81-1.2-4.87-2.17c-.95-.86-1.64-1.48-3.12-1.48-1.5 0-2.17.62-3.11 1.48-1.06.97-2.37 2.17-4.87 2.17s-3.82-1.2-4.87-2.17c-.95-.86-1.65-1.48-3.12-1.48-1.47 0-2.17.62-3.12 1.48C147.9 4.8 146.6 6 144.08 6c-2.5 0-3.8-1.2-4.87-2.17-.94-.86-1.64-1.48-3.11-1.48-1.5 0-2.17.62-3.12 1.48-1.06.97-2.36 2.17-4.87 2.17-2.5 0-3.81-1.2-4.87-2.17-.94-.86-1.64-1.48-3.11-1.48-1.5 0-2.17.62-3.12 1.48-1.06.97-2.37 2.17-4.87 2.17s-3.81-1.2-4.87-2.17c-.95-.86-1.64-1.48-3.12-1.48-1.5 0-2.17.62-3.11 1.48C99.98 4.8 98.67 6 96.17 6s-3.82-1.2-4.87-2.17c-.95-.86-1.64-1.48-3.12-1.48-1.47 0-2.17.62-3.12 1.48C84.01 4.8 82.7 6 80.2 6c-2.5 0-3.8-1.2-4.86-2.17-.95-.86-1.65-1.48-3.12-1.48-1.5 0-2.17.62-3.12 1.48C68.03 4.8 66.73 6 64.22 6c-2.5 0-3.81-1.2-4.87-2.17-.94-.86-1.64-1.48-3.11-1.48-1.5 0-2.17.62-3.12 1.48C52.06 4.8 50.75 6 48.25 6s-3.81-1.2-4.87-2.17c-.95-.86-1.64-1.48-3.12-1.48-1.5 0-2.17.62-3.11 1.48C35.84 4.8 34.5 6 32 6c-2.5 0-3.81-1.2-4.87-2.17-.95-.86-1.64-1.48-3.12-1.48-1.5 0-2.17.62-3.11 1.48C19.84 4.8 18.53 6 16.03 6s-3.81-1.2-4.87-2.17C10.18 2.97 9.49 2.35 8 2.35c-1.5 0-2.17.62-3.11 1.48C3.8 4.8 2.5 6 0 6V3.65c1.5 0 2.17-.62 3.12-1.48C4.17 1.2 5.48 0 8.02 0c2.5 0 3.8 1.2 4.86 2.17.95.86 1.65 1.48 3.12 1.48 1.5 0 2.17-.62 3.12-1.48C20.17 1.2 21.5 0 24.02 0c2.5 0 3.8 1.2 4.86 2.17.95.86 1.65 1.48 3.12 1.48 1.5 0 2.17-.62 3.12-1.48C36.17 1.2 37.48 0 39.99 0c2.5 0 3.8 1.2 4.87 2.17.94.86 1.64 1.48 3.11 1.48 1.5 0 2.17-.62 3.12-1.48C52.15 1.2 53.45 0 55.96 0c2.5 0 3.81 1.2 4.87 2.17.94.86 1.64 1.48 3.11 1.48 1.5 0 2.17-.62 3.12-1.48C68.12 1.2 69.43 0 71.93 0s3.81 1.2 4.87 2.17c.95.86 1.64 1.48 3.12 1.48 1.5 0 2.17-.62 3.11-1.48C84.1 1.2 85.4 0 87.9 0s3.81 1.2 4.87 2.17c.95.86 1.64 1.48 3.12 1.48 1.5 0 2.17-.62 3.12-1.48 1.05-.97 2.36-2.17 4.86-2.17 2.5 0 3.82 1.2 4.87 2.17.95.86 1.65 1.48 3.12 1.48 1.48 0 2.17-.62 3.12-1.48 1.05-.97 2.36-2.17 4.87-2.17 2.5 0 3.8 1.2 4.87 2.17.94.86 1.64 1.48 3.11 1.48 1.5 0 2.17-.62 3.12-1.48 1.06-.97 2.37-2.17 4.87-2.17s3.81 1.2 4.87 2.17c.94.86 1.64 1.48 3.12 1.48 1.5 0 2.17-.62 3.11-1.48C147.98 1.2 149.3 0 151.8 0s3.81 1.2 4.87 2.17c.95.86 1.64 1.48 3.12 1.48 1.5 0 2.17-.62 3.11-1.48 1.06-.97 2.37-2.17 4.87-2.17s3.82 1.2 4.87 2.17c.95.86 1.65 1.48 3.12 1.48 1.5 0 2.17-.62 3.12-1.48 1.05-.97 2.36-2.17 4.87-2.17 2.5 0 3.8 1.2 4.86 2.17.95.86 1.65 1.48 3.12 1.48 1.5 0 2.17-.62 3.12-1.48C195.9 1.2 197.2 0 199.7 0c2.5 0 3.81 1.2 4.87 2.17.94.86 1.64 1.48 3.11 1.48 1.5 0 2.17-.62 3.12-1.48 1.06-.97 2.37-2.17 4.87-2.17s3.81 1.2 4.87 2.17c.95.86 1.64 1.48 3.12 1.48 1.5 0 2.17-.62 3.11-1.48C228.17 1.2 229.47 0 232 0c2.5 0 3.82 1.2 4.87 2.17.95.86 1.65 1.48 3.12 1.48 1.47 0 2.17-.62 3.12-1.48 1.05-.97 2.36-2.17 4.87-2.17 2.5 0 3.8 1.2 4.87 2.17.94.86 1.64 1.48 3.11 1.48 1.48 0 2.17-.62 3.12-1.48C260.17 1.2 261.49 0 264 0c2.54 0 3.82 1.2 4.87 2.17.95.86 1.64 1.48 3.12 1.48 1.48 0 2.17-.62 3.12-1.48 1.05-.97 2.36-2.17 4.87-2.17 2.5 0 3.8 1.2 4.87 2.17.94.86 1.64 1.48 3.11 1.48 1.5 0 2.17-.62 3.12-1.48 1.06-.97 2.36-2.17 4.87-2.17 2.5 0 3.81 1.2 4.87 2.17.94.86 1.64 1.48 3.11 1.48 1.48 0 2.18-.62 3.12-1.48 1.06-.97 2.37-2.17 4.87-2.17s3.81 1.2 4.87 2.17c.95.86 1.64 1.48 3.12 1.48V6h.08z"/></svg>