<svg xmlns="http://www.w3.org/2000/svg" viewBox="0 0 1150 34"><path d="M1121.2 0c-14.4 0-14.4 14-28.8 14S1078 0 1063.6 0s-14.4 14-28.7 14c-14.4 0-14.4-14-28.8-14s-14.4 14-28.8 14-14.2-14-28.5-14-14.4 14-28.8 14-14.4-14-28.7-14-14.4 14-28.8 14-14.4-14-28.7-14c-14.4 0-14.4 14-28.7 14S790.7 0 776.3 0s-14.4 14-28.7 14c-14.4 0-14.4-14-28.8-14S704.4 14 690 14 675.6 0 661.3 0c-14.4 0-14.4 14-28.8 14S618.1 0 603.7 0s-14.4 14-28.8 14-14.2-14-28.6-14-14.4 14-28.8 14-14.4-14-28.7-14c-14.4 0-14.4 14-28.8 14S445.6 0 431.2 0s-14.4 14-28.8 14S388 0 373.6 0s-14.4 14-28.8 14-14.1-14-28.5-14-14.4 14-28.8 14-14.3-14-28.7-14c-14.4 0-14.4 14-28.8 14S215.7 0 201.3 0c-14.4 0-14.4 14-28.8 14S158.2 0 143.8 0c-14.4 0-14.4 14-28.8 14S100.7 0 86.3 0 71.9 14 57.5 14 43.1 0 28.8 0 14.4 14 0 14v20h1150V14c-14.4 0-14.4-14-28.8-14z"/></svg>